<?xml version="1.0" encoding="utf-8"?>
<!-- Generator: Adobe Illustrator 16.0.3, SVG Export Plug-In . SVG Version: 6.00 Build 0)  -->
<!DOCTYPE svg PUBLIC "-//W3C//DTD SVG 1.1//EN" "http://www.w3.org/Graphics/SVG/1.1/DTD/svg11.dtd">
<svg version="1.1" id="レイヤー_1" xmlns="http://www.w3.org/2000/svg" xmlns:xlink="http://www.w3.org/1999/xlink" x="0px"
	 y="0px" width="612px" height="124.921px" viewBox="0 333.543 612 124.921" enable-background="new 0 333.543 612 124.921"
	 xml:space="preserve">
<g>
	<g>
		<g>
			<path fill="#6A6D70" d="M444.605,398.29h-1.641c-2.118,3.779-4.526,6.923-7.322,9.442c-3.416,3.074-6.884,4.635-10.313,4.635
				h-0.161l-0.609,3.023c0,0,6.686,0,7.124,0c-0.087,0.443-6.656,32.811-6.656,32.811c-0.264,1.284-0.396,2.385-0.396,3.339
				c0,3.035,1.392,4.476,4.563,5.144c3.068,0.651,5.582,0.598,9.748,0.52l1.836-0.039l0.588-3.272l-0.211-0.009
				c-3.35-0.229-5.099-0.601-5.818-1.26c-0.63-0.564-0.945-1.464-0.945-2.766c0-0.756,0.114-1.656,0.315-2.699
				c0,0,6.116-30.184,6.448-31.771c0.282,0,6.125,0,6.125,0l0.609-3.023c0,0-5.708,0-6.125,0
				C441.845,411.935,444.605,398.29,444.605,398.29z"/>
			<path fill="#6A6D70" d="M483.613,412.369l-0.608,3.023c0,0,3.077,0,3.473,0c-0.087,0.444-6.703,33.105-6.703,33.105
				c-3.918,3.681-7.745,5.601-11.317,5.601c-2.544,0-4.457-0.768-5.69-2.292c-2.03-2.492-2.394-7.069-1.064-13.62l5.24-25.817
				H453.99l-0.617,3.023c0,0,3.077,0,3.485,0c-0.097,0.441-4.644,22.926-4.644,22.926c-0.405,1.938-0.597,3.74-0.597,5.414
				c0,3.293,0.786,6.056,2.304,8.255c2.436,3.482,6.607,5.249,12.424,5.249c4.376,0,8.603-1.506,12.562-4.416
				c-0.132,0.676-0.678,3.348-0.678,3.348h12.949l0.617-3.054c0,0-3.077,0-3.477,0c0.088-0.44,8.249-40.745,8.249-40.745H483.613z"
				/>
			<path fill="#6A6D70" d="M547.181,392.486h-14.014l-0.692,3.422c0,0,3.704,0,4.108,0c-0.087,0.435-3.572,18.021-3.686,18.591
				c-2.382-2.215-5.855-3.363-10.385-3.363c-12.283,0-20.078,7.775-23.192,23.1c-1.703,8.407-0.98,14.604,2.133,18.416
				c2.522,3.096,6.665,4.655,12.283,4.655c4.217,0,7.976-1.118,11.197-3.272c-0.108,0.576-0.459,2.334-0.459,2.334h12.76
				l0.692-3.423c0,0-2.573,0-2.963,0C535.039,452.5,547.181,392.486,547.181,392.486z M509.109,434.533
				c1.901-9.383,5.519-15.781,10.731-18.996c1.065-0.639,2.127-0.979,3.186-1.008c4.076-0.1,7.43,1.652,8.966,4.68
				c-0.045,0-6.098,30.081-6.098,30.081c-0.591,1.312-4.509,4.736-10.147,4.767c-0.723,0.006-1.449-0.15-2.163-0.459
				C508.502,451.369,507.003,444.947,509.109,434.533z"/>
			<path fill="#6A6D70" d="M550.865,412.394l-0.621,3.048c0,0,3.293,0,3.695,0c-0.087,0.443-7.577,37.428-7.64,37.715
				c-0.282,0-3.687,0-3.687,0l-0.621,3.036h17.775l0.614-3.036c0,0-4.187,0-4.598,0c0.084-0.438,8.252-40.763,8.252-40.763H550.865z
				"/>
			<path fill="#6A6D70" d="M566.612,394.778c-0.408-0.495-0.921-0.885-1.5-1.161c-0.603-0.282-1.271-0.423-2.03-0.423
				c-0.741,0-1.481,0.138-2.187,0.417l-1.935,1.14l-1.509,1.674c-0.408,0.626-0.696,1.311-0.837,2.052
				c-0.078,0.362-0.114,0.711-0.114,1.049c0,0.357,0.036,0.696,0.114,1.021c0.168,0.645,0.446,1.212,0.846,1.698
				c0.417,0.5,0.921,0.896,1.509,1.172c0.594,0.276,1.271,0.417,2.03,0.417c0.75,0,1.491-0.141,2.181-0.417l1.94-1.143l1.509-1.671
				c0.414-0.633,0.696-1.316,0.837-2.058c0.15-0.726,0.15-1.416,0-2.063C567.307,395.843,567.007,395.275,566.612,394.778z"/>
			<path fill="#6A6D70" d="M608.952,416.212c-2.654-3.245-7.103-4.896-13.225-4.896c-14.814,0-23.885,7.712-26.963,22.923
				c-1.688,8.306-0.972,14.431,2.124,18.206c2.57,3.141,6.82,4.733,12.654,4.733c8.222,0,14.542-1.781,18.747-5.288
				c4.221-3.512,7.192-9.424,8.843-17.583C612.797,426.102,612.057,420.016,608.952,416.212z M596.783,447.14
				c-2.787,4.358-6.389,6.566-11.012,6.764c-4.175,0.177-6.916-2.153-7.934-6.739c-0.785-3.411-0.668-7.67,0.333-12.649
				c1.044-5.162,2.648-9.514,4.767-12.937c2.789-4.563,6.17-6.71,10.939-6.988c4.613-0.258,7.042,1.854,8.116,7.063
				c0.762,3.527,0.63,7.855-0.387,12.867C600.614,439.452,598.99,443.693,596.783,447.14z"/>
			<path fill="#6A6D70" d="M403.014,392.159c-5.78-0.045-10.679,1.224-15.396,3.992c-5.09,2.987-8.27,7.175-9.458,12.46
				c-1.463,6.581,0.333,11.425,5.486,14.8c0.027,0.015,14.884,7.004,14.884,7.004c5.225,2.639,7.369,6.286,6.353,10.837
				c-0.87,3.962-3.158,7.204-6.758,9.655c-3.44,2.372-7.385,3.563-11.77,3.527c-3.345-0.027-8.048-1.446-10.265-3.102
				c-2.391-1.812-3.519-4.19-3.329-7.085c0-0.012,0.282-4.592,0.282-4.592l-4.271-0.03l-1.908,9.17
				c3.572,5.944,11.707,9.595,21.255,9.667c6.125,0.045,11.82-1.35,16.923-4.157c5.801-3.188,9.355-7.574,10.57-13.036
				c1.035-4.619,0.149-8.791-2.609-12.405c-2.568-3.339-7.043-6.116-13.273-8.272c-4.127-1.42-6.958-2.855-8.674-4.412
				c-2.391-2.127-3.168-5.127-2.319-8.918c0.688-3.099,2.535-5.883,5.489-8.279c3.068-2.495,5.858-3.593,9.053-3.569
				c1.176,0.012,4.157,0.111,6.512,0.834s4.907,2.006,5.33,3.237l0.036-0.03l0.642,6.059l0.162,0.015l3.549,0.024l2.469-10.501
				l-0.192-0.045C414.862,393.335,407.326,392.189,403.014,392.159z"/>
		</g>
		<g>
			<polygon fill="#6A6D70" points="159.639,410.895 150.737,456.675 158.643,456.675 167.545,410.895 			"/>
			<polygon fill="#6A6D70" points="170.986,393.617 162.983,393.617 161.103,403.176 169.096,403.176 			"/>
			<polygon fill="#6A6D70" points="180.083,393.617 167.749,456.675 175.656,456.675 187.978,393.617 			"/>
			<polygon fill="#6A6D70" points="184.741,456.675 192.648,456.675 201.55,410.895 193.653,410.895 			"/>
			<polygon fill="#6A6D70" points="196.997,393.617 195.108,403.176 203.101,403.176 204.982,393.617 			"/>
			<path fill="#6A6D70" d="M230.039,416.857c5.763,0,9.397,3.314,9.476,8.641v0.22h7.906l-0.009-0.231
				c-0.504-10.234-6.539-15.648-17.46-15.648c-6.767,0-12.67,2.369-17.082,6.852c-5.09,5.162-7.934,12.915-7.816,21.263
				c0.177,12.754,6.988,19.775,19.182,19.775c10.633,0,18.168-5.843,20.682-16.044l0.068-0.275H237.1l-0.054,0.152
				c-2.108,5.729-6.935,9.151-12.906,9.151c-9.581,0-11.125-7.996-11.197-12.769c-0.087-6.233,2.259-12.553,6.14-16.482
				C222.046,418.455,225.849,416.857,230.039,416.857z"/>
			<path fill="#6A6D70" d="M277.929,409.838c-6.668,0-12.562,2.408-17.061,6.977c-5.268,5.337-8.216,13.271-8.093,21.753
				c0.162,11.452,8.048,19.16,19.616,19.16c6.555,0,12.343-2.366,16.753-6.851c5.291-5.366,8.257-13.398,8.125-22.046
				C297.102,416.584,290.23,409.838,277.929,409.838z M273.088,450.712c-7.667,0-12.31-4.571-12.415-12.237
				c-0.087-6.351,2.444-13.093,6.467-17.166c2.913-2.952,6.389-4.451,10.36-4.451c7.331,0,11.779,4.703,11.884,12.585
				c0.078,5.091-1.907,12.311-6.503,16.98C280.083,449.267,276.783,450.712,273.088,450.712z"/>
			<path fill="#6A6D70" d="M331.017,409.838c-6.353,0-12.229,2.871-15.892,7.646c0.168-0.879,1.264-6.59,1.264-6.59h-7.641
				l-8.992,45.783h7.907l4.934-25.262c0.72-2.834,2.001-6.907,4.79-9.349c2.937-3.171,7.244-5.208,11.002-5.208
				c3.705,0,7.694,1.602,7.767,6.102c0.018,1.442-0.559,4.961-0.951,6.968l-5.462,26.749h7.925l5.171-26.05
				c0.771-3.608,1.227-7.017,1.199-8.909C343.918,413.726,339.653,409.838,331.017,409.838z"/>
			<path fill="#6A6D70" d="M132.385,421.779l-7.606-2.777c-5.585-2.094-9.221-3.902-8.675-9.607
				c0.724-7.745,9.38-9.814,14.374-9.814c7.463,0,11.497,2.592,12.352,7.91l0.036,0.188h8.566l-0.027-0.243
				c-0.813-9.586-8.389-15.31-20.273-15.31c-10.888,0-22.402,5.444-23.543,17.601c-0.749,7.901,3.23,13.223,12.143,16.275
				l7.685,2.778c6.185,2.255,9.91,4.076,9.316,10.372c-0.768,10.06-10.175,11.56-15.724,11.56c-5.534,0-9.557-1.221-11.965-3.632
				c-1.904-1.899-2.858-4.613-2.858-8.051v-0.003v-0.22h-8.561l-0.009,0.211c-0.3,5.432,1.104,9.816,4.166,13.047
				c3.785,3.996,10.084,6.107,18.237,6.107c5.312,0,22.853-1.368,25.153-18.972C146.281,427.367,140.037,424.313,132.385,421.779z"
				/>
		</g>
	</g>
	<g>
		<path fill="#D16C15" d="M67.2,333.543c-3.743,9.61-21.419,11.249-31.717,17.454c-10.312,6.206-13.083,13.504-13.083,19.2
			c0,5.798,3.73,8.153,3.73,8.153l9.434-0.012c-0.908-4.064-0.194-9.502,7.445-14.172c3.239-1.979,7.478-2.115,7.478-2.115
			c-4.383-2.375-16.44-0.795-20.622,5.096c0.582-4.547,7.463-11.32,18.657-11.32c11.215,0,14.938-7.352,14.938-7.352
			s5.186,14.26-6.617,18.672c-6.416,2.567-16.038,1.617-17.499,11.191l9.182-0.012c2.499-1.254,3.74-4.056,3.74-4.056
			C81.793,371.085,67.2,333.543,67.2,333.543z"/>
		<rect x="11.198" y="434.347" fill="#6A6D70" width="18.668" height="7.466"/>
		<rect x="11.198" y="423.149" fill="#6A6D70" width="18.668" height="7.466"/>
		<rect x="44.794" y="434.347" fill="#6A6D70" width="18.666" height="7.466"/>
		<rect x="0" y="445.55" fill="#6A6D70" width="74.666" height="11.194"/>
		<rect x="44.794" y="423.149" fill="#6A6D70" width="18.666" height="7.466"/>
		<rect x="11.198" y="400.746" fill="#6A6D70" width="52.235" height="7.467"/>
		<polygon fill="#6A6D70" points="63.46,389.543 67.2,389.543 67.2,382.078 7.463,382.078 7.463,389.543 11.198,389.543 
			11.198,396.991 11.198,397.01 63.469,397.01 63.46,396.991 		"/>
		<path fill="#6A6D70" d="M41.978,411.947c1.722,1.37,2.813,3.47,2.813,5.836v1.627h18.666v-7.463H41.978z M32.683,411.947H11.198
			v7.463h18.668v-1.627C29.865,415.417,30.97,413.317,32.683,411.947z"/>
	</g>
</g>
</svg>
