<?xml version="1.0" encoding="utf-8"?>
<!--Designed by Vexels.com - 2017 All Rights Reserved - https://vexels.com/terms-and-conditions/-->
<svg version="1.1" id="Layer_1" xmlns="http://www.w3.org/2000/svg" xmlns:xlink="http://www.w3.org/1999/xlink" x="0px" y="0px"
	 viewBox="0 0 1200 1200" enable-background="new 0 0 1200 1200" xml:space="preserve">
<path fill="#212121" d="M772.347,823.553c-7.538,4.086-13.787,10.591-21.146,15.115c-7.464,4.589-15.59,8.643-23.76,11.782
	c-1.113,0.428-1.166,2.686,0.272,2.286c16.096-4.477,36.238-13.219,45.83-27.863C774.117,823.999,773.285,823.045,772.347,823.553z
	 M820.268,743.145c10.528-15.691,11.948-34.175,11.22-52.6c-0.084-2.122-3.036-1.481-3.169,0.364
	c-1.255,17.462-6.481,34.459-10.233,51.493C817.786,743.769,819.579,744.172,820.268,743.145z M698.905,542.147
	c7.988-0.902,15.906-0.363,23.823,0.978c6.949,1.177,13.862,4.991,20.793,4.964c1.192-0.005,2.023-1.584,1.067-2.436
	c-11.419-10.174-31.914-8.061-45.651-5.055C698.004,540.803,697.737,542.279,698.905,542.147z M823.103,607.67
	c5.378,16.431,5.551,33.701,10.606,50.011c0.353,1.139,2.015,0.731,2.325-0.231c4.751-14.714-0.506-32.437-4.953-46.738
	c-5.823-18.724-15.329-35.027-27.504-50.316c-1.053-1.322-3.155,0.841-2.319,2.098C810.494,576.399,817.907,591.793,823.103,607.67z
	 M805.972,597.437c8.029,17.336,10.9,35.707,17.367,53.419c0.804,2.201,4.078,1.969,4.199-0.518
	c0.939-19.391-8.545-41.271-17.248-58.099c-9.53-18.428-21.152-34.548-40.11-43.922c-1.032-0.511-2.482,1.313-1.435,1.999
	C785.911,561.556,797.461,579.062,805.972,597.437z M973.206,310.391c0.556,0.681,1.684,1.436,2.601,0.849
	c2.973-1.907,3.252-4.786,3.204-8.215c-0.052-3.672-0.269-7.339-0.589-10.997c-0.386-4.422-7.874-5.149-7.63-0.254
	c0.165,3.305,0.248,6.602,0.234,9.911C971.011,304.873,971.102,307.812,973.206,310.391z M842.116,645.158
	c1.177,17.079-0.887,34.714,1.852,51.595c0.284,1.749,2.507,0.879,2.815-0.378c4.29-17.487,2.188-38.251,0.479-55.987
	c-2.021-20.967-7.073-40.48-17.223-59.036c-0.877-1.604-3.144,0.022-2.473,1.502C836.445,602.437,840.643,623.784,842.116,645.158z
	 M816.829,773.399c-13.056,16.129-22.669,34.571-36.597,50.205c-1.275,1.431,0.414,4.579,2.114,2.975
	c15.172-14.304,30.497-31.848,36.727-52.149C819.574,772.799,817.808,772.189,816.829,773.399z M836.471,752.246
	c-8.704,20.138-18.43,39.776-30.451,58.155c-1.081,1.653,0.834,3.807,2.119,1.993c13.063-18.428,23.357-38.113,29.407-59.955
	C837.72,751.813,836.681,751.76,836.471,752.246z M737.764,839.34c-20.748,4.891-40.995,9.121-62.448,8.711
	c-1.421-0.027-2.197,2.764-0.581,2.928c21.924,2.228,43.827-0.077,63.581-10.35C739.17,840.184,738.629,839.136,737.764,839.34z
	 M809.205,764.131c0.338-1.074-0.994-1.695-1.774-1.049c-10.189,8.448-17.073,21.196-25.538,31.328
	c-8.798,10.531-18.606,24.788-32.215,29.118c-1.834,0.584-1.521,4.429,0.601,3.94c12.684-2.925,22.05-12.955,30.562-22.268
	C791.726,793.29,804.286,779.741,809.205,764.131z M704.556,527.259c8.157,1.955,16.23,4.293,24.355,6.396
	c5.869,1.519,12.461,4.936,18.508,3.707c0.952-0.194,1.663-1.622,0.784-2.321c-5.514-4.383-13.429-5.359-20.213-6.854
	c-7.537-1.662-15.038-2.365-22.708-3.062C704.083,525.015,703.125,526.916,704.556,527.259z M472.482,877.243
	c7.41-6.726,15.344-12.657,23.659-18.219c6.005-4.017,13.109-7.102,18.209-12.252c1.061-1.071,0.678-3.458-1.173-3.079
	c-8.086,1.658-15.408,7.38-21.899,12.23c-7.478,5.589-14.324,11.981-20.826,18.665C468.964,876.119,470.674,878.883,472.482,877.243
	z M333.119,773.518c-32.371,15.502-61.677,38.993-90.504,60.135c-0.692,0.508,0.113,1.458,0.799,0.996
	c29.747-20.033,62.021-36.94,90.775-58.357C335.407,775.384,334.888,772.67,333.119,773.518z M272.697,871.636
	c-7.19,0.419-13.819,6.352-19.305,10.58c-2.291,1.765-0.265,6.604,2.337,4.757c5.849-4.153,13.35-7.141,17.886-12.784
	C274.358,873.265,274.151,871.552,272.697,871.636z M320.216,856.736c-4.884,0.367-9.266,4.415-13.116,7.262
	c-4.56,3.372-8.836,7.075-12.9,11.029c-1.981,1.927,0.484,6.204,2.732,4.058c4.146-3.959,8.502-7.692,13.151-11.051
	c3.693-2.668,8.791-4.622,11.278-8.5C321.956,858.606,321.655,856.628,320.216,856.736z M213.362,864.363
	c1.071-1.068,0.476-3.789-1.379-3.14c-14.857,5.2-28.894,16.898-41.993,25.499c-1.807,1.187-0.574,4.236,1.257,4.317
	c0.252-0.036,0.513-0.108,0.789-0.271C185.474,882.812,202.245,875.449,213.362,864.363z M171.198,891.056
	c0.043-0.002,0.086-0.002,0.129-0.004c-0.027,0-0.052-0.012-0.079-0.013C171.231,891.042,171.213,891.055,171.198,891.056z
	 M706.709,731.315c-1.413,1.079-0.173,4.087,1.567,2.917c16.319-10.975,32.08-27.37,36.303-47.215
	c0.254-1.193-1.425-1.128-1.9-0.395C731.823,703.354,722.914,718.94,706.709,731.315z M476.111,416.234
	c3.602-3.348,7.446-6.539,10.438-10.459c0.904-1.186-0.175-3.515-1.762-2.55c-4.239,2.577-7.767,6.344-11.414,9.679
	C471.466,414.648,473.964,418.23,476.111,416.234z M385.525,425.788c5.094-4.848,10.304-9.566,15.681-14.1
	c5.406-4.559,11.296-8.641,15.549-14.361c0.842-1.133,0.271-3.039-1.374-2.486c-6.234,2.098-11.24,6.559-16.206,10.728
	c-5.929,4.977-11.654,10.182-17.23,15.551C379.56,423.417,382.974,428.217,385.525,425.788z M155.594,714.218
	c14.269-10.616,29.847-19.106,44.202-29.534c0.828-0.602,0.773-2.36-0.571-1.868c-16.675,6.122-31.285,17.237-45.166,28.13
	C152.403,712.245,153.599,715.701,155.594,714.218z M228.074,722.204c21.313-8.92,47.099-18.693,63.643-35.334
	c1.034-1.04,0.471-3.876-1.379-3.14c-22.043,8.767-42.004,24.641-62.982,35.867C226.108,720.266,226.467,722.877,228.074,722.204z
	 M239.605,675c-1.99,1.082-1.054,5.083,1.169,3.86c9.032-4.968,18.357-9.308,27.36-14.33c0.739-0.413,0.884-1.917-0.28-1.608
	C257.768,665.597,248.745,670.031,239.605,675z M278.571,535.981c1.174-1.192,0.715-4.412-1.473-3.834
	c-10.398,2.745-19.851,8.954-29.437,13.756c-9.193,4.604-18.379,9.219-27.665,13.633c-2.381,1.132-0.667,6.003,1.902,5.009
	c11.427-4.422,22.655-9.221,33.651-14.631C263.523,545.991,272.284,542.364,278.571,535.981z M151.909,805.001
	c27.63-15.882,55.027-32.086,82.245-48.669c24.634-15.008,51.975-29.062,73.91-47.927c1.309-1.126,0.518-3.637-1.362-2.868
	c-28.915,11.818-56.256,31.541-82.881,47.834c-24.977,15.284-49.712,30.894-74.248,46.873
	C147.107,801.849,149.141,806.592,151.909,805.001z M375.196,692.114c7.159-4.202,14.077-8.403,20.758-13.338
	c0.805-0.595,0.268-1.862-0.731-1.409c-7.446,3.372-14.324,7.358-21.345,11.532C372.106,689.952,373.147,693.317,375.196,692.114z
	 M366.07,755.873c15.147-9.218,30.627-17.91,44.435-29.092c1.4-1.134,0.393-3.705-1.463-2.894
	c-16.585,7.236-31.665,17.324-47.07,26.734C358.714,752.611,362.8,757.863,366.07,755.873z M349.5,829.043
	c30.162-22.724,63.546-40.991,93.478-63.81c1.559-1.188,0.58-4.551-1.582-3.6c-34.2,15.046-65.584,39.954-95.001,62.673
	C343.873,826.253,346.789,831.086,349.5,829.043z M245.62,600.675c48.832,1.476,97.719,1.748,146.571,2.196
	c0.637,3.189,1.261,7.023,0.146,9.447c-3.8,8.268-14.625,6.175-21.369,6.085c-12.083-0.162-24.167-0.32-36.25-0.474
	c-13.638-0.175-27.275-0.332-40.913-0.521c-6.154-0.086-35.236,2.75-37.095-4.254c-1.416-5.339-9.993-3.501-9.996,1.725
	c-0.007,12.695,10.847,12.862,21.206,13.006c23.176,0.323,46.365,0.289,69.542,0.447c10.868,0.074,21.736,0.145,32.603,0.213
	c6.647,0.042,14.407,1.248,20.889-0.819c13.949-4.448,12.713-19.002,10.419-31.129c-0.414-2.187-3.041-3.224-4.978-3.201
	c-50.379,0.558-100.776,0.943-151.138,2.387C242.446,595.864,242.878,600.592,245.62,600.675z M927.191,753.473
	c0.631-0.886-0.034-2.543-1.27-2.061c-7.299,2.851-12.927,7.931-18.934,12.851c-6.213,5.089-13.864,9.914-18.554,16.45
	c-0.93,1.296-0.183,4.098,1.817,3.221c8.002-3.506,15.003-10.58,21.842-15.971C917.727,763.523,922.995,759.363,927.191,753.473z
	 M718.688,365.214c-3.148-10.204-9.031-11.394-18.852-11.19c-14.928,0.31-30.861-0.305-45.51,2.893
	c-2.721,0.594-2.029,4.988,0.546,5.257c8.373,0.877,16.731,0.405,25.136,0.27c6.181-0.1,23.929-3.129,28.633,1.765
	c4.657,4.848,2.001,18.679,1.101,24.223c-1.648,10.153-8.04,13.444-16.481,16.002c-0.83-0.061-1.666-0.087-2.502-0.111
	c2.691-2.626,5.086-5.6,7.285-9.011c3.478-5.394,7.535-13.097,4.999-19.5c-0.221-0.557-0.938-0.816-1.481-0.608
	c-5.267,2.018-7.036,10.316-9.767,14.951c-3.005,5.102-6.908,9.911-10.934,14.423c-4.336,0.294-8.655,0.675-12.888,0.818
	c3.882-4.825,7.346-10.108,8.539-15.983c0.272-1.34-1.071-2.157-2.191-1.642c-6.501,2.988-11.221,11.268-14.945,17.822
	c-0.912,0.015-1.826,0.032-2.738,0.048c2.169-3.847,4.625-7.558,5.378-11.935c0.21-1.224-0.799-2.98-2.255-2.253
	c-5.221,2.607-7.483,9.078-9.506,14.325c-4.319,0.098-8.639,0.212-12.967,0.418c-2.682,0.128-2.634,4.176-0.113,4.611
	c17.299,2.987,38.64,5.322,56.439,1.634C717.734,413.072,724.89,385.322,718.688,365.214z M806.114,377.915
	c-4.612,0.35-8.621,3.352-12.86,5.11c-3.926,1.628-7.964,2.86-12.094,3.844c0.585-11.927,1.768-24.509,0.094-35.977
	c-3.009-20.605-25.224-15.638-41.138-16.115c-33.185-0.994-66.685-3.672-99.864-1.555c-24.433,1.56-51.565,3.042-63.555,27.371
	c-13.696,8.684-32.455,30.607-33.506,49.613c-2.743,1.571-5.097,3.909-7.513,5.934c-3.495,2.929-6.979,5.87-10.46,8.816
	c-1.849,1.565-0.379,5.775,1.913,4.03c4.063-3.092,8.12-6.192,12.168-9.304c1.455-1.118,2.885-2.171,4.234-3.293
	c0.853,4.909,3.163,9.479,7.426,13.381c0.584,0.535,1.238,0.985,1.856,1.479c-1.109,0.919-2.162,1.923-3.193,2.749
	c-3.134,2.51-6.275,5.009-9.417,7.508c-1.548,1.231-0.199,3.927,1.613,2.615c3.153-2.284,6.318-4.551,9.477-6.824
	c1.64-1.18,3.422-2.266,4.962-3.568c3.927,2.5,8.319,4.413,13.059,5.805c-0.171,0.16-0.343,0.329-0.514,0.486
	c-5.736,5.249-11.312,10.587-16.772,16.124c-1.953,1.981,0.395,6.082,2.874,4.047c6.49-5.328,12.834-10.739,19.09-16.343
	c0.959-0.859,1.936-1.699,2.898-2.549c18.923,3.512,41.04,1.227,56.908,0.583c23.222-0.943,46.401-0.719,69.595-2.597
	c15.274-1.237,30.491-2.952,45.686-4.933c8.101-1.056,20.684-0.197,27.202-6.07c7.848-7.07,4.459-24.249,4.612-34.037
	c0.011-0.741,0.047-1.501,0.068-2.25c0.214,0.026,0.422,0.067,0.669,0.018c5.378-1.079,10.635-2.58,15.707-4.68
	c3.68-1.523,7.806-3.118,9.919-6.623C807.821,379.78,807.577,377.804,806.114,377.915z M772.428,361.268
	c-0.036-0.517-0.291-0.999-0.862-1.158c-9.517-2.662-22.416,1.796-31.969,4.326c-0.086-1.279-0.194-2.555-0.245-3.804
	c-0.053-1.282-0.141-2.561-0.208-3.841c6.647-0.05,13.281-0.232,19.927-0.587c4.046-0.216,8.478-0.081,12.529-0.998
	C772.042,357.041,772.301,359.085,772.428,361.268z M767.832,348.415c-9.386-0.59-19.892,1.174-29.003,2.551
	c-0.174-2.713-0.371-5.425-0.571-8.138C748.65,342.497,761.414,342.345,767.832,348.415z M580.379,365.686
	c6.026,0.532,12.64,1.097,17.79-0.966c0.764-0.306,1.384-1.748,0.349-2.151c-4.522-1.762-9.995-1.58-15.275-1.16
	c1.823-1.915,3.658-3.711,5.531-5.391c2.166,0.022,4.332,0.045,6.498,0.065c2.789,0.026,5.2,0.22,7.659-1.197
	c0.716-0.412,1.325-2.059,0.332-2.563c-2.67-1.355-5.256-1.324-8.206-1.324h-0.266c4.256,0,8.962-5.012,14.667-6.326
	c1.557-0.359,3.129-0.611,4.709-0.907c-8.017,6.791-13.221,17.645-18.853,26.103c-0.563,0.846-1.132,1.72-1.702,2.583
	c-2.542-1.569-5.747-1.473-8.732-1.817c-1.889-0.217-3.812-0.484-5.738-0.704C579.636,368.595,580.035,367.173,580.379,365.686z
	 M562.379,396.044c0.026-0.001,0.042,0.011,0.069,0.008c3.681-0.339,7.277-0.229,10.912,0.447c2.357,0.438,4.474,1.372,6.814,0.581
	c0.84-0.284,1.164-1.438,0.552-2.071c-3.587-3.704-10.917-3.061-16.18-2.167c1.943-2.763,3.831-5.23,5.169-7.099
	c0.259-0.362,0.504-0.705,0.758-1.06c1.91-0.155,3.821-0.31,5.731-0.466c3.711-0.303,7.526,0.043,10.633-2.168
	c0.765-0.544,1.197-2.343,0.032-2.758c-3.813-1.36-7.511-0.547-11.498-0.175c-0.37,0.034-0.739,0.069-1.109,0.104
	c0.715-1.086,1.396-2.174,2.028-3.274c2.655,0.485,5.344,0.817,8.023,1.178c1.584,0.214,3.696,0.815,5.687,0.968
	c-5.464,8.809-10.212,18.429-10.332,28.729c-3.865-2.285-8.075-1.598-12.471-1.533c-3.267,0.048-6.533,0.127-9.8,0.2
	C558.568,402.337,560.398,399.09,562.379,396.044z M592.032,428.54c-7.013-0.607-20.139-1.361-28.453-6.002
	c1.02,0.027,2.041,0.069,3.061,0.086c4.562,0.077,9.288,0.515,13.561-1.277c1.02-0.428,1.667-2.571,0.312-3.033
	c-6.864-2.338-15.12-1.743-22.814-1.174c-0.577-0.963-1.062-1.983-1.334-3.128c-0.257-1.081-0.313-2.231-0.211-3.425
	c3.805,0.085,7.609,0.18,11.415,0.233c4.19,0.058,8.763,1.089,12.097-1.777c0.022-0.019,0.034-0.055,0.056-0.076
	c0.022,0.414,0.022,0.824,0.06,1.24c0.926,10.304,7.006,12.402,16.34,15.328c5.759,1.806,11.988,3.298,18.341,4.188
	C606.918,429.525,599.418,429.18,592.032,428.54z M636.879,429.836c3.314-0.516,6.552-1.297,9.653-2.414
	c2.846-1.025,0.861-5.468-1.498-5.697c-9.21-0.893-18.407,0.231-27.656-0.635c-15.122-1.416-32.132-0.906-29.972-21.545
	c1.023-9.768,10.64-22.088,15.547-30.148c1.776-2.917,3.697-5.759,5.547-8.631c3.817-5.927,7.75-11.567,12.134-17.085
	c0.23-0.29,0.346-0.612,0.413-0.936c9.645-1.305,19.521-1.728,29.09-1.981c26.12-0.688,52.32,1.054,78.407,2.195
	c1.878,0.082,4.122,0.037,6.546-0.036c-0.139,2.881-0.271,5.762-0.384,8.641c-0.04,0.005-0.084,0.012-0.124,0.018
	c-2.076,0.281-2.162,3.236-0.899,4.582c-0.206,0.299-0.36,0.658-0.371,1.134c-0.406,16.661,0.309,43.043-14.329,53.585
	c-11.908,8.576-26.409,9.008-40.305,11.028c-2.611,0.379-2.387,4.233-0.092,4.922c2.051,0.616,4.241,1.059,6.525,1.338
	C669.249,428.863,653.036,429.609,636.879,429.836z M703.079,427.405c-0.038-0.024-0.072-0.051-0.11-0.075
	c2.539-0.505,5.06-1.162,7.516-1.973c0.726,0.537,1.468,1.049,2.215,1.554C709.493,427.096,706.287,427.259,703.079,427.405z
	 M724.406,426.141c-1.197-0.463-2.418-0.882-3.531-1.397c-1.304-0.605-2.544-1.316-3.781-2.03c0.905-0.428,1.782-0.888,2.65-1.359
	c1.826,1.686,3.743,3.289,5.786,4.702C725.155,426.084,724.781,426.113,724.406,426.141z M742.836,424.572
	c-2.522,0.25-5.048,0.467-7.574,0.691c-1.696-1.808-4.047-3.045-6.09-4.373c-1.42-0.923-2.804-1.88-4.165-2.869
	c1.822-1.339,3.488-2.793,4.969-4.363c0.258,1.153,1.076,2.216,2.482,2.536c8.353,1.903,16.576,3.563,25.078,4.575
	c1.733,0.207,3.529,0.491,5.322,0.673C757.016,424.366,749.033,423.957,742.836,424.572z M770.026,412.385
	c-0.147,0.569-0.34,1.076-0.528,1.59c-4.351-1.526-9.616-1.039-14.105-1.423c-7.438-0.635-14.868-1.45-22.263-2.467
	c-0.149-0.02-0.255,0.023-0.393,0.019c1.317-2.098,2.259-4.434,2.911-6.928c0.455,0.304,0.972,0.526,1.609,0.515
	c7.082-0.129,14.181-0.438,21.232-1.141c3.9-0.389,8.513-0.297,12.152-1.926C770.816,404.69,770.921,408.914,770.026,412.385z
	 M742.768,376.577c8.711-0.279,21.31,0.089,29.479-4.453c-0.19,2.726-0.446,5.47-0.712,8.144
	c-10.749,0.083-23.079,5.53-32.784,7.964c-0.552,0.139-0.818,1.114-0.055,1.059c7.494-0.535,14.965-0.711,22.452-1.485
	c3.213-0.332,6.576-0.44,9.752-1.067c-0.227,2.497-0.4,4.825-0.448,6.873c-0.006,0.29,0.002,0.603,0.002,0.903
	c-4.014-0.472-7.933,0.393-12.117,0.935c-7.18,0.93-14.365,1.627-21.591,2.076c0.647-5.118,0.665-10.413,1.015-14.985
	c0.219-2.871,0.348-5.71,0.416-8.54c1.054-1.798,1.419-3.779,1.502-5.821c5.505-0.99,11.038-1.827,16.598-2.449
	c5.176-0.58,10.775-0.387,15.395-2.927c0.481-0.264,0.741-0.811,0.768-1.348c0.109,2,0.119,4.098,0.045,6.265
	c-9.581-0.886-20.494,3.087-29.793,4.513C740.623,372.551,740.531,376.649,742.768,376.577z M800.578,394.834
	c-3.092,0.827-6.109,2.853-9.018,4.234c-2.916,1.385-5.908,2.569-8.857,3.877c-1.627,0.722-1.144,3.736,0.818,3.346
	c6.24-1.244,14.058-4.058,18.339-8.995C802.82,396.188,802.134,394.418,800.578,394.834z M546.949,468.838
	c-10.767,6.938-25.105,13.608-32.649,24.154c-0.628,0.879-0.457,3.007,1.093,2.62c13.01-3.245,24.348-14.417,35.137-22.108
	C553.266,471.555,549.857,466.964,546.949,468.838z M226.083,477.875c-4.937,3.643-8.981,8.578-13.237,12.974
	c-4.813,4.97-9.646,9.921-14.465,14.885c-1.172,1.208,0.124,3.272,1.471,1.964c4.883-4.742,9.755-9.495,14.648-14.228
	c4.441-4.296,9.376-8.398,13.114-13.334C228.479,478.992,227.678,476.697,226.083,477.875z M1065.26,455.403
	c-3.614,1.436-6.194,4-8.991,6.648c-2.745,2.6-5.491,5.201-8.236,7.801c-2.507,2.375,1.39,7.058,4.063,4.552
	c5.265-4.936,12-9.691,15.251-16.225C1068.031,456.802,1066.923,454.743,1065.26,455.403z M516.979,449.556
	c-9.285,6.563-18.59,13.099-27.842,19.71c-8.904,6.362-19.824,12.323-26.319,21.229c-0.891,1.221-0.423,3.924,1.594,3.187
	c9.574-3.499,17.61-10.694,25.703-16.751c10.024-7.502,19.994-15.074,29.969-22.639
	C522.624,452.367,519.752,447.595,516.979,449.556z M784.679,376.909c3.574-0.781,7.148-1.558,10.725-2.328
	c2.84-0.611,5.598-0.725,7.422-3.147c0.458-0.608,0.813-2.042-0.204-2.421c-3.191-1.192-6.028,0.046-9.19,0.883
	c-3.232,0.856-6.469,1.689-9.702,2.541C781.262,373.087,782.028,377.488,784.679,376.909z M475.216,453.079
	c13.143-4.117,21.913-13.636,31.869-22.651c10.242-9.272,21.863-17.029,31.752-26.635c1.061-1.031,0.769-3.638-1.165-2.809
	c-11.53,4.941-21.459,13.462-30.708,21.798c-10.417,9.389-19.285,21.526-32.297,27.428
	C473.145,450.899,473.254,453.693,475.216,453.079z M676.836,732.015c28.09-5.472,57.165-29.821,57.285-60.56
	c0.007-1.763-2.271-1.704-2.852-0.314c-4.865,11.621-8.302,22.879-16.496,32.755c-9.869,11.897-23.25,20.93-38.129,25.168
	C675.244,729.463,675.115,732.35,676.836,732.015z M529.247,458.161c-5.734,4.836-11.709,9.355-17.981,13.476
	c-6.329,4.158-13.354,7.535-18.98,12.634c-1.422,1.289-0.376,4.408,1.719,3.882c14.743-3.696,27.993-15.345,38.984-25.359
	C535.477,460.529,531.98,455.856,529.247,458.161z M519.077,437.71c-13.203,7.294-26.178,14.922-39.115,22.676
	c-11.077,6.638-23.739,12.663-33.103,21.604c-1.804,1.722-0.204,5.384,2.385,4.381c25.395-9.837,49.717-29.421,72.149-44.597
	C523.634,440.257,521.641,436.293,519.077,437.71z M848.256,458.887c-3.015,0.085-5.799,1.362-8.431,2.744
	c-3.24,1.701-7.005,3.279-9.475,6.043c-1.175,1.314-0.754,4.201,1.474,3.834c3.321-0.548,6.342-2.312,9.288-3.866
	c3.147-1.66,6.031-3.249,8.237-6.134C850.168,460.437,849.71,458.846,848.256,458.887z M1056.322,437.273
	c5.141-3.567,10.049-6.835,14.29-11.501c0.822-0.904,0.454-2.983-1.103-2.405c-5.759,2.135-10.513,5.673-15.523,9.149
	C1051.554,434.203,1053.738,439.066,1056.322,437.273z M1063.139,505.315c-2.289-0.057-4.366,1.611-6.104,2.949
	c-2.064,1.59-4.085,3.24-6.125,4.86c-1.101,0.874-1.506,2.249-0.867,3.564c0.5,1.027,2.096,2.052,3.204,1.194
	c1.973-1.528,3.96-3.039,5.918-4.585c2.209-1.743,4.333-3.461,5.296-6.184C1064.807,506.136,1064.063,505.338,1063.139,505.315z
	 M1075.831,484.946c0.673-1.057,0.391-2.852-1.184-2.65c-4.686,0.601-8.155,3.051-11.819,5.788
	c-3.072,2.295,0.737,7.307,3.925,5.292c1.911-1.208,3.874-2.357,5.61-3.817C1073.796,488.356,1074.827,486.522,1075.831,484.946z
	 M1052.781,506.638c0.012-0.578-0.163-1.283-0.704-1.603c-3.125-1.852-7.212,1.381-9.963,2.837
	c-2.926,1.548-0.833,6.841,2.241,5.411c1.69-0.786,3.379-1.575,5.066-2.367C1051.269,510.048,1052.738,508.795,1052.781,506.638z
	 M1038.766,499.585c-7.642,2.255-13.783,8.489-19.404,13.88c-2.606,2.499,0.643,7.661,3.752,5.327
	c6.354-4.768,13.157-9.398,17.024-16.507C1040.69,501.269,1040.428,499.094,1038.766,499.585z M1079.741,511.647
	c-2.237,0.322-3.674,1.361-5.288,2.915c-1.243,1.197-2.442,2.443-3.662,3.664c-2.441,2.442,1.473,7.143,4.063,4.552
	c1.288-1.289,2.646-2.537,3.877-3.879c1.42-1.548,2.191-2.848,2.629-4.882C1081.572,513.033,1081.042,511.46,1079.741,511.647z
	 M1098.983,435.512c-0.269,0.005-0.452,0.091-0.688,0.129c-0.342-12.327-0.76-24.652-1.293-36.974
	c-0.858-19.845-0.658-40.336-3.414-60.01c-1.744-12.448-7.137-19.79-20.186-20.974c-11.135-1.01-22.534-1.039-33.945-0.855
	c1.776-17.111,7.458-49.211-11.307-57.845c-8.477-3.9-20.404-2.866-29.425-2.961c-13.773-0.145-27.564,0.493-41.291,1.583
	c-15.323,1.218-30.585,3.07-45.813,5.147c-9.142,1.246-24.411,0.375-31.718,6.481c-9.728,8.13-7.33,32.6-5.535,45.6
	c-41.923-0.791-83.851-1.431-125.78-1.68c0.444-0.519,0.81-1.118,0.958-1.875c0.953-4.872,0.063-9.999-0.001-14.953
	c-0.056-4.359,1.166-10.16-0.813-14.173c-3.319-6.73-12.863-4.325-18.794-3.816c-7.09,0.607-15.095,0.17-17.806,8.091
	c-1.447,4.226-1.248,9.308-1.483,13.7c-0.235,4.393-0.415,8.687,0.908,12.891c-6.237,0.007-12.474,0.027-18.712,0.063
	c-0.752-4.231-0.068-8.916-2.734-12.628c-4.215-5.871-12.319-4.344-18.531-4.252c-5.946,0.087-16.171-2.002-20.761,2.729
	c-3.666,3.78-3.709,9.67-2.81,14.732c-4.595,0.096-9.19,0.182-13.784,0.305c-12.927,0.347-25.852,0.806-38.767,1.459
	c-10.327,0.522-22.598-0.371-32.427,3.338c-9.553,3.605-17.707,10.951-24.838,19.246c-0.281-0.035-0.551-0.089-0.854-0.09
	c-64.738-0.275-129.55-0.219-194.32,0.522c0.496-16.793,3.475-35.089-16.565-38.299c-9.705-1.555-19.83-2.2-30.059-2.323
	c-0.143-8.894-0.996-20.049-8.308-25.712c-8.715-6.748-21.421-4.255-31.447-3.221c-11.348,1.17-23.561,1.543-31.172,11.329
	c-5.035,6.474-6.593,14.189-3.646,21.411c-17.783,1.433-35.951,3.717-51.752,9.143c-14.025,4.815-8.499,26.845-5.351,38.489
	c-3.316,0.823-6.615,1.693-9.873,2.674c-29.487,8.873-37.345,45.923-31.854,73.372c-3.092,0.61-5.999,1.497-8.534,2.814
	c-5.326,2.766-7.685,8.829-8.758,15.636c-19.738-0.191-47.355,12.361-54.394,29.123c-9.507,22.639,35.553,22.194,52.255,21.196
	c-0.027,3.63-0.01,7.258,0.1,10.88c0.243,7.953,0.072,14.666,6.777,19.855c7.783,6.023,18.154,7.241,28.509,7.154
	c2.631,12.698,0.63,25.602-0.141,38.506c-0.619,10.356-0.99,20.723-1.217,31.094c-0.13,0.087-0.26,0.178-0.389,0.264
	c-1.952,1.305-1.267,3.936,0.286,5.154c-0.041,2.404-0.086,4.81-0.114,7.214c-0.327,28.273,0.07,56.556,0.194,84.829
	c0.254,58.182,0.503,116.365,0.771,174.547c0.116,25.163-8.124,67.93,27.882,70.201c5.342,0.336,10.822-0.015,16.172-0.018
	c78.304-0.046,156.609-0.098,234.914-0.12c115.491-0.034,230.983-0.029,346.474-0.175c87.568-0.111,175.136-0.194,262.704-0.283
	c13.989-0.014,36.408,3.68,49.014-4.162c15.032-9.351,13.374-28.702,12.513-44.953c1.384-2.635,1.315-6.051-0.288-8.332
	c-0.144-29.613-0.291-59.226-0.442-88.839c-0.297-58.41-1.199-116.855-0.881-175.265c0.073-13.335,0.108-26.691,0.499-40.021
	c0.348-11.859,1.889-23.776,0.777-35.494c0.307-0.578,0.651-1.142,0.938-1.727c0.985-2.006-0.116-3.692-1.798-4.522
	c-0.041-0.219-0.06-0.44-0.104-0.659c2.531,0.357,5.062,0.713,7.593,1.069c2.254,0.318,4.759-1.759,4.785-4.028
	c0.154-13.195,0.181-26.39,0.136-39.583c9.722-0.908,21.616-7.065,29.235-11.254c9.491-5.218,18.43-11.575,21.046-22.612
	C1154.937,439.877,1114.324,435.194,1098.983,435.512z M104.603,466.889c-0.141,2.324-0.263,4.654-0.386,6.984
	c-1.924,0.112-3.844,0.111-5.678-0.396c-2.791-0.772-6.449-3.524-4.846-6.817c1.596-3.279,7.14-3.1,11.022-2.914
	C104.692,464.856,104.662,465.925,104.603,466.889z M104.789,457.031c-8.173-1.924-19.649,0.756-19.988,10.549
	c-0.366,10.588,10.003,14.129,19.054,14.404c-0.031,0.818-0.07,1.634-0.097,2.452c-6.825,0.715-13.661,1.02-20.529,0.512
	c-8.186-0.606-28.88-0.969-18.661-14.606c9.278-12.38,25.657-15.238,40.338-17.858C104.845,454.021,104.807,455.549,104.789,457.031
	z M1017.301,269.3c0.371,0.157,0.781,0.307,1.132,0.467c-0.546,0.195-1.103,0.348-1.651,0.535
	C1016.963,269.968,1017.143,269.631,1017.301,269.3z M1008.649,270.177c0.378,0.87,1.097,1.587,1.956,2.077
	c-1.286,0.367-2.581,0.691-3.875,1.019C1007.508,272.293,1008.175,271.264,1008.649,270.177z M1000.988,267.224
	c0.129-0.005,0.257-0.012,0.386-0.017c-0.183,0.17-0.364,0.345-0.542,0.522C1000.895,267.562,1000.945,267.393,1000.988,267.224z
	 M996.026,273.279c-0.048,0.056-0.099,0.119-0.147,0.175c-0.634,0.728-0.881,1.523-0.871,2.299c-0.809,0.138-1.62,0.264-2.431,0.389
	C993.745,275.208,994.896,274.255,996.026,273.279z M980.407,275.95c-0.061,0.551-0.012,1.111,0.143,1.65
	c-0.887,0.078-1.776,0.144-2.665,0.211C978.72,277.183,979.566,276.571,980.407,275.95z M964.879,278.365
	c-0.021,0.024-0.042,0.047-0.062,0.071l-0.061,0.001C964.798,278.413,964.838,278.39,964.879,278.365z M957.147,274.804
	c-0.37,0.317-0.737,0.63-1.099,0.929c-0.877,0.726-1.03,1.762-0.798,2.768c-1.819-0.015-3.639-0.039-5.461-0.079
	C952.133,277.153,954.66,276.015,957.147,274.804z M944.297,275.354c0.066,1.177,0.731,2.302,1.737,2.977
	c-1.895-0.057-3.79-0.128-5.685-0.204C941.671,277.215,942.98,276.279,944.297,275.354z M933.628,271.633
	c1.083-0.122,2.167-0.233,3.251-0.351c-1.837,1.515-3.506,3.19-4.702,5.122c-0.255,0.413-0.335,0.872-0.341,1.335
	c-1.696-0.087-3.39-0.175-5.084-0.268C929.209,275.848,932.135,273.982,933.628,271.633z M902.778,275.533
	c5.015-0.688,10.033-1.355,15.055-2c-0.141,0.25-0.292,0.487-0.418,0.755c-0.397,0.853-0.312,1.805,0.049,2.663
	c-5.865-0.335-11.707-0.663-17.502-0.914C900.877,275.856,901.78,275.67,902.778,275.533z M907.308,283.318
	c-1.762,7.391-3.153,17,0.481,23.133c0.641,1.083,2.339,1.262,3.207,0.39c4.842-4.861,4.113-15.474,3-22.746
	c3.573,0.405,7.17,0.789,10.782,1.153c-0.253,2.684-0.476,5.367-0.457,8.072c0.025,3.574,0.953,6.027,2.337,9.401
	c0.491,1.198,2.1,1.245,2.735,0.121c3.019-5.339,2.393-11.168,1.566-17.003c5.125,0.464,10.271,0.845,15.422,1.14
	c-0.92,6.928-2.401,15.211,0.509,21.128c0.566,1.151,2.091,1.706,3.052,0.61c2.183-2.491,2.118-5.231,2.146-8.466
	c0.038-4.328-0.205-8.666-0.382-12.998c2.093,0.09,4.185,0.167,6.275,0.218c0.418,4.229,0.76,8.464,0.931,12.713
	c0.199,4.954,0.009,8.483,2.94,12.62c0.711,1.004,2.398,1.302,3.264,0.315c3.072-3.504,2.907-7.146,2.695-11.639
	c-0.22-4.665-0.686-9.304-1.266-13.934c8.621-0.05,17.165-0.532,25.545-1.578c-0.724,4.74-1.578,10.491,1.203,14.09
	c0.348,0.451,1.193,0.664,1.703,0.382c2.478-1.372,2.439-3.787,2.438-6.439c-0.002-2.941-0.047-5.868,0.007-8.806
	c2.015-0.316,4.026-0.642,6.016-1.032c-0.368,9.983-2.083,20.239,0.298,29.928c0.384,1.562,2.517,2.346,3.547,0.893
	c6.332-8.929,5.002-21.822,3.365-32.394c2.267-0.565,4.502-1.222,6.729-1.902c0.039,3.672-0.114,7.334-0.333,11.047
	c-0.327,5.566-1.402,10.187,0.924,15.417c0.419,0.943,1.786,1.054,2.501,0.434c6.713-5.826,4.469-19.115,2.339-28.725
	c1.344-0.478,2.705-0.911,4.03-1.437c1.423,3.188,1.69,7.037,1.738,11.815c0.093,9.297-0.395,18.558-1.045,27.824
	c-7.398,0.155-14.769,0.289-22.037,0.187c-28.426-0.4-56.849-0.972-85.271-1.528c-7.564-0.148-15.128-0.292-22.693-0.439
	c2.557-5.724,1.065-12.28,0.655-18.452c-0.328-4.936-0.642-9.9-1.452-14.778C900.236,282.475,903.758,282.898,907.308,283.318z
	 M884.063,292.99c0.667-5.42,2.342-9.176,5.022-11.858c0.402,0.048,0.814,0.098,1.218,0.146c-0.769,5.416-0.61,11.026-0.419,16.438
	c0.221,6.247,0.038,12.041,2.977,17.477c-3.772-0.073-7.544-0.147-11.317-0.219C882.492,307.654,883.162,300.322,884.063,292.99z
	 M720.285,297.52c0.199-2.286,0.063-5.147,0.811-7.319c1.116-3.241,4.022-2.241,7.373-2.431c2.438-0.138,6.863-1.329,9.151-0.585
	c2.802,0.912,1.689,3.484,1.654,6.52c-0.069,5.887-0.882,13.194,1.692,18.594c0.153,0.32,0.371,0.562,0.577,0.818
	c-6.503-0.031-13.006-0.101-19.509-0.108c-1.194-0.001-2.389,0.005-3.583,0.005C719.889,307.986,719.83,302.738,720.285,297.52z
	 M656.018,307.036c1.454-3.309,0.565-2.869,4.881-2.81c4.544,0.063,9.088,0.102,13.633,0.172c4.751,0.073,7.78-0.328,8.314,4.891
	c0.132,1.286,0.167,2.575,0.235,3.86c-9.56,0.081-19.12,0.198-28.679,0.374C654.684,311.284,655.149,309.012,656.018,307.036z
	 M305.966,309.562c6.565-0.145,13.279,0.047,17.83,1.967c9.55,4.029,8.113,17.184,7.985,27.06
	c-8.258,0.104-16.511,0.27-24.768,0.394c-0.476-9.75-0.779-19.498-1.057-29.254C305.968,309.676,305.955,309.615,305.966,309.562z
	 M289.272,309.843c-0.602,9.671-0.87,19.677-0.345,29.428c-5.439,0.095-10.882,0.151-16.32,0.26
	c1.069-1.044,2.138-2.089,3.206-3.134c0.575-0.562,1.169-1.111,1.728-1.69c0.808-0.837,1.265-1.907,1.865-2.897
	c0.721-1.19-0.265-2.605-1.6-1.91c-0.686,0.357-1.447,0.652-2.077,1.098c-0.69,0.489-1.271,1.232-1.861,1.836
	c-1.241,1.269-2.481,2.539-3.721,3.809c-0.751,0.769-1.097,1.923-0.504,2.908c0.009,0.015,0.026,0.022,0.035,0.037
	c-1.526,0.03-3.064,0.062-4.598,0.093c-0.198-2.363-0.388-4.727-0.588-7.087c0.702,0.098,1.44-0.09,2.086-0.765
	c5.177-5.409,11.964-10.084,15.904-16.481c0.568-0.922,0.333-3.216-1.277-2.676c-6.801,2.276-12.301,8.509-17.22,13.817
	c-0.451-5.54-0.836-11.086-1.125-16.645C271.661,309.664,280.466,309.667,289.272,309.843z M233.862,284.479
	c6.519-7.232,18.525-6.881,27.78-7.536c9.236-0.654,18.611-0.928,22.875,9.553c1.409,3.465,0.683,7.53,1.054,11.384
	c-8.419,0.171-16.818,0.617-25.057,1.129c-0.41-0.246-0.86-0.436-1.332-0.568c5.007-3.417,10.006-7.091,12.85-12.245
	c0.493-0.893,0.202-2.338-1.107-2.014c-4.447,1.099-7.6,4.128-10.886,7.137c-2.984,2.732-5.972,5.46-8.948,8.201
	c-0.032,0.03-0.047,0.072-0.076,0.103c-1.041,0.07-2.101,0.139-3.134,0.209c-0.584,0.039-1.198,0.077-1.787,0.116
	c2.675-1.68,5.353-3.356,8.012-5.06c3.094-1.982,5.977-3.959,6.813-7.689c0.192-0.856-0.276-2.284-1.328-2.354
	c-3.737-0.251-6.888,1.609-9.916,3.696c-3.502,2.413-6.983,4.861-10.449,7.326c-1.693,1.203-1.612,3.145-0.689,4.576
	c-3.644,0.236-7.334,0.478-11.064,0.747C228.6,295.085,229.396,289.435,233.862,284.479z M224.097,339.979
	c0.6-9.41,0.788-18.764,0.49-28.172c5.746-0.458,11.496-0.87,17.25-1.194c0.702-0.04,1.403-0.058,2.104-0.095
	c1.118,9.745,1.651,19.64,1.534,29.431c-0.001,0.075,0.033,0.127,0.035,0.2c-7.196,0.216-14.43,0.521-21.665,0.948
	C223.948,340.735,224.071,340.384,224.097,339.979z M196.134,314.766c3.702-0.48,7.408-0.928,11.119-1.33
	c0.06,9.431-0.165,19.489,1.926,28.731c-4.564,0.41-9.117,0.882-13.647,1.457c0.38-4.772,0.671-9.55,0.756-14.339
	C196.37,324.659,196.764,319.546,196.134,314.766z M170.672,330.134c-0.166-6.048-1.293-6.987,3.3-10.696
	c1.966-1.587,4.436-2.36,7.031-2.823c-0.393,9.728-0.261,19.376,0.646,29.107c-3.86,0.673-7.702,1.404-11.506,2.25
	C171.015,342.031,170.84,336.26,170.672,330.134z M151.613,362.121c11.04-5.323,25.616-6.907,38.631-8.163
	c0.631,0.036,1.257-0.003,1.84-0.178c2.434-0.233,4.823-0.463,7.09-0.707c37.149-3.994,74.467-2.973,111.752-2.703
	c41.239,0.299,82.487,0.612,123.736,0.786c-5.664,4.631-10.847,10.053-15.767,14.99c-2.09,2.097,0.941,6.287,3.304,3.987
	c6.869-6.684,14.754-12.402,21.715-18.947c11.559,0.042,23.118,0.084,34.677,0.095c-10.531,5.514-19.815,15.018-28.492,22.636
	c-2.164,1.9,0.564,6.087,3.016,4.032c10.287-8.619,22.782-16,31.455-26.289c0.099-0.118,0.171-0.251,0.233-0.386
	c8.984,0.003,17.966-0.013,26.949-0.034c-3.857,2.708-7.312,6.167-10.883,9.116c-6.909,5.704-13.892,11.318-20.928,16.865
	c-2.498,1.97,0.397,6.789,3.105,4.737c6.997-5.302,13.939-10.675,20.8-16.152c5.552-4.432,11.893-8.562,15.76-14.577
	c2.772-0.009,5.545,0.002,8.317-0.01c-2.021,2.802-3.957,5.556-5.809,8.157c-13.231,18.581-23.37,41.863-41.62,56.197
	c-9.327,7.326-21.382,10.678-34.276,12.097c9.109-8.315,19.303-16.027,26.643-25.734c0.832-1.1,0.167-3.246-1.468-2.507
	c-12.807,5.79-23.392,18.674-32.867,28.769c-0.032,0.034-0.04,0.079-0.069,0.114c-9.063,0.492-18.338,0.254-27.254-0.108
	c12.435-9.407,28.082-18.936,37.089-31.855c1.211-1.737-0.745-4.215-2.649-3.221c-14.049,7.33-26.097,20.128-38.586,29.859
	c-1.82,1.418-1.068,3.839,0.474,5.065c-6.177-0.265-12.136-0.537-17.65-0.596c-9.193-0.098-18.385-0.288-27.578-0.455
	c8.884-7.78,18.038-15.152,26.168-23.775c0.987-1.046,0.319-2.999-1.26-2.199c-12.107,6.136-21.715,15.443-31.113,25.078
	c-0.225,0.231-0.388,0.5-0.502,0.785c-7.937-0.156-15.873-0.313-23.809-0.497c16.177-15.279,33.782-29.152,49.217-45.129
	c1.301-1.347,0.159-3.992-1.781-2.951c-21.302,11.433-39.141,29.947-55.013,47.901c-6.935-0.166-13.87-0.319-20.805-0.49
	c-0.397-0.01-0.795-0.022-1.193-0.032c6.3-4.432,12.162-9.368,17.896-14.804c10.876-10.312,22.953-20.216,32.966-31.308
	c1.144-1.267,0.502-4.647-1.719-3.882c-23.818,8.198-37.982,34.014-57.208,49.779c-5.293-0.142-10.586-0.284-15.882-0.435
	c9.272-8.695,18.599-17.337,28.056-25.825c10.549-9.468,24.683-18.321,32.027-30.574c0.826-1.377-0.414-4.236-2.289-3.442
	c-13.904,5.891-25.223,17.84-36.25,27.923c-11.03,10.087-21.569,20.602-31.64,31.629c-11.767-0.336-23.539-0.653-35.314-0.914
	c13.3-10.559,27.106-20.758,38.763-32.876c1.286-1.337,0.002-4.974-2.101-3.927c-17.652,8.788-32.966,22.69-47.139,36.593
	c-7.829-0.143-15.657-0.234-23.484-0.283c8.55-7.241,17.477-14.118,26.196-21.073c8.665-6.912,18.227-13.048,24.718-22.156
	c0.79-1.109-0.119-3.341-1.668-2.752c-21.253,8.079-38.535,28.862-54.234,45.953c-5.789-0.018-11.575,0.007-17.361,0.061
	c6.613-6.51,13.489-12.741,20.595-18.725c6.971-5.871,16.423-11.039,21.191-18.887c0.753-1.239,0.101-3.987-1.812-3.42
	c-10.439,3.094-19.48,12.016-27.454,19.165c-7.722,6.923-14.963,14.32-21.94,21.977c-3.856,0.067-7.711,0.169-11.565,0.276
	c12.527-9.234,26.844-18.805,35.048-31.794c0.869-1.376-0.068-3.216-1.762-2.55c-15.592,6.13-28.954,20.831-41.003,31.973
	c-0.766,0.708-0.997,1.635-0.922,2.548c-2.08,0.02-4.24,0.033-6.498,0.05c7.257-9.627,14.988-18.924,23.635-27.327
	c9.957-9.675,23.248-16.752,31.848-27.611c0.98-1.238-0.026-3.89-1.812-3.42c-14.666,3.856-26.794,15.122-37.422,25.475
	c-7.483,7.289-14.333,15.209-20.172,23.838c1.241-3.03,2.43-6.087,3.768-9.061c4.047-8.998,8.502-17.725,13.556-26.201
	c1.716-2.878-2.465-6.578-4.621-3.549c-6.642,9.336-14.584,20.318-19.622,31.727C131.534,389.714,134.999,370.131,151.613,362.121z
	 M190.366,665.496c-15.221,6.042-29.075,17.038-42.64,26.251c-0.06-10.398-0.102-20.797-0.095-31.195
	c27.955-18.382,57.508-36.699,81.819-59.675c1.212-1.145,0.428-3.908-1.463-2.894c-28.444,15.245-54.543,36.161-80.337,55.714
	c0.013-4.651,0.029-9.303,0.064-13.954c12.326-6.877,27.01-14.844,34.857-26.577c0.771-1.153-0.202-3.401-1.77-2.763
	c-7.394,3.009-13.634,8.495-20.028,13.175c-4.338,3.175-8.653,6.377-12.991,9.548c0.059-5.698,0.126-11.394,0.23-17.09
	c17.857-8.91,37.139-18.764,50.269-33.592c1.086-1.226-0.114-3.176-1.662-2.539c-17.058,7.016-32.444,18.309-48.416,27.898
	c0.041-1.827,0.081-3.654,0.128-5.48c8.138-5.144,16.278-10.283,24.373-15.494c9.215-5.933,19.645-11.227,27.223-19.231
	c1.345-1.42,0.654-4.483-1.701-3.624c-17.52,6.398-33.923,18.694-49.659,29.937c0.218-5.132,0.644-10.383,1.115-15.692
	c7.659-3.74,16.715-7.371,21.986-13.742c0.802-0.969,0.372-2.801-1.093-2.621c-6.847,0.843-13.866,5.192-20.261,9.206
	c0.295-3.389,0.567-6.79,0.779-10.187c0.908,1.043,2.384,1.48,3.538,0.173c4.276-4.844,9.974-7.875,14.313-12.523
	c0.906-0.971,0.304-2.743-1.093-2.621c-6.494,0.568-12.258,6.112-16.535,10.796c0.173-3.89,0.227-7.765,0.109-11.603
	c5.09-3.41,11.575-7.346,13.383-13.167c0.095-0.305,0.072-0.654-0.001-0.997c12.264-0.283,24.528-0.567,36.791-0.851
	c-3.471,2.586-6.911,5.214-10.282,7.935c-1.319,1.065-0.482,3.712,1.137,2.491c4.834-3.645,9.742-7.189,14.774-10.556
	c5.485-0.127,10.97-0.253,16.455-0.381c-2.722,1.257-5.349,2.81-7.976,4.23c-6.476,3.5-12.487,7.72-18.472,11.994
	c-1.634,1.168-0.39,4.744,1.701,3.624c6.347-3.399,12.838-6.494,19.292-9.678c5.392-2.66,12.134-4.485,15.96-9.294
	c0.261-0.329,0.402-0.725,0.446-1.129c0.08-0.002,0.161-0.003,0.242-0.006c53.331-1.239,106.886-1.535,160.39-2.702
	c-3.447,2.091-6.789,4.389-10.141,6.548c-8.053,5.188-15.967,10.49-23.807,15.996c-1.6,1.124-0.479,4.711,1.582,3.601
	c8.461-4.556,16.783-9.279,25.054-14.17c6.359-3.761,13.226-7.237,18.71-12.243c10.793-0.262,21.584-0.567,32.369-0.926
	c-15.663,5.487-30.609,14.85-45.342,22.307c-1.5,0.759-0.749,3.245,0.962,2.421c15.501-7.472,32.616-13.877,46.913-23.501
	c0.462-0.311,0.637-0.882,0.541-1.332c17.192-0.589,34.371-1.327,51.526-2.267c-21.886,8.245-43.32,20.006-63.832,29.63
	c-2.871,1.347-1.216,6.628,1.769,5.353c26.736-11.429,57.482-20.696,82.337-36.198c3.253-0.211,6.507-0.41,9.757-0.638
	c-3.41,3.42-6.649,7.008-9.805,10.671c-27.658,8.13-55.102,27.585-78.135,42.495c-2.566,1.661-0.131,6.481,2.64,4.763
	c15.26-9.464,31.01-17.926,47.091-25.904c5.674-2.816,11.724-5.324,17.743-7.934c-10.038,13.828-18.415,28.939-25.005,44.87
	c-4.08,0.79-7.916,3.503-11.38,5.669c-4.942,3.089-9.68,6.51-14.362,9.977c-1.512,1.12-0.524,4.754,1.466,3.574
	c4.591-2.723,9.225-5.35,13.957-7.82c2.194-1.146,4.767-2.2,7.178-3.466c-1.985,5.362-3.731,10.817-5.312,16.325
	c-6.866,4.021-13.357,8.919-19.895,13.167c-11.773,7.648-23.552,15.281-35.541,22.59c-2.217,1.351-0.484,5.383,2.046,4.046
	c13.252-7.005,26.422-14.214,39.239-21.993c3.628-2.202,7.474-4.371,11.245-6.69c-1.384,5.931-2.511,11.922-3.418,17.951
	c-2.961,1.584-5.629,3.912-8.398,5.9c-5.833,4.188-11.536,8.544-17.226,12.925c-2.428,1.87,0.005,6.591,2.794,4.759
	c5.907-3.88,11.831-7.723,17.624-11.773c1.266-0.885,2.644-1.742,4.019-2.629c-0.554,5.079-0.993,10.171-1.2,15.279
	c-1.212,30.011,3.036,60.04,8.548,89.469c1.275,6.809,2.806,13.38,4.666,19.748c-3.438,0.199-6.42,3.028-9.188,4.895
	c-3.262,2.2-6.525,4.401-9.79,6.597c-1.691,1.138-0.24,4.904,1.701,3.623c3.363-2.216,6.725-4.433,10.088-6.651
	c2.754-1.816,6.077-3.415,7.852-6.265c2.18,7.107,4.807,13.952,7.996,20.567c-16.498,10.961-31.486,24.607-48.386,35.066
	c-1.743,1.079-0.773,4.375,1.318,3.216c16.905-9.37,35.395-19.529,49.645-33.22c2.668,4.969,5.686,9.809,9.115,14.53
	c-22.74,11.323-43.921,30.332-63.96,45.078c-0.114,0.084,0.019,0.217,0.122,0.148c21.175-14.457,45.858-26.322,66.079-42.206
	c0.99,1.282,2.01,2.556,3.064,3.821c9.238,11.088,19.524,21.327,30.588,30.629c-3.57,1.683-6.706,4.504-9.802,6.855
	c-5.132,3.895-10.072,8.053-15.075,12.111c-2.088,1.694-0.051,5.785,2.453,4.066c5.225-3.588,10.558-7.041,15.69-10.763
	c3.672-2.663,7.988-5.235,10.717-8.93c4.163,3.349,8.443,6.543,12.818,9.602c-2.124,0.825-4.028,2.328-5.777,3.724
	c-3.04,2.425-5.717,5.168-8.18,8.173c-1.154,1.408,0.758,3.861,2.116,2.297c2.413-2.775,5.049-5.313,8.02-7.489
	c2.229-1.632,4.586-2.949,6.565-4.856c8.805,5.972,17.964,11.406,27.5,16.08c-9.077,0.048-18.155,0.101-27.232,0.149
	c1.54-1.137,3.076-2.281,4.625-3.403c3.202-2.319-1.053-7.227-4.273-5.206c-3.431,2.154-6.913,4.227-10.301,6.448
	c-1.105,0.724-2.315,1.428-3.386,2.234c-5.957,0.032-11.913,0.065-17.87,0.098c4.326-3.348,8.602-6.744,12.842-10.211
	c2.619-2.141-0.705-6.596-3.581-4.667c-6.164,4.133-12.142,8.46-18.089,12.898c-0.936,0.699-1.882,1.369-2.811,2.045
	c-4.907,0.027-9.813,0.053-14.72,0.08c3.553-2.756,7.061-5.556,10.508-8.458c2.352-1.981-0.995-6.706-3.646-4.959
	c-4.708,3.102-9.302,6.321-13.851,9.651c-1.722,1.261-3.656,2.482-5.456,3.835c-1.877,0.011-3.754,0.02-5.631,0.031
	c3.168-2.467,6.116-5.209,9.345-7.615c1.235-0.919,0.264-2.784-1.135-1.879c-3.917,2.534-8.16,4.329-12.205,6.63
	c-1.729,0.983-3.563,1.82-5.152,2.914c-4.91,0.029-9.819,0.068-14.728,0.098c0.327-0.3,0.654-0.602,0.97-0.868
	c4.181-3.526,7.77-7.389,11.613-11.258c1.209-1.218,0.583-4.92-1.582-3.601c-5.113,3.116-9.985,6.19-14.538,10.105
	c-2.082,1.79-4.509,3.526-6.203,5.687c-3.267,0.02-6.535,0.044-9.802,0.065c3.081-2.437,6.003-5.18,8.699-7.22
	c6.497-4.917,12.737-9.863,18.711-15.404c1.258-1.167,0.703-4.763-1.465-3.574c-7.254,3.978-13.73,8.466-20.237,13.592
	c-4.752,3.743-11.018,7.658-14.932,12.669c-11.217,0.072-22.434,0.146-33.651,0.223c2.551-1.918,5.036-3.895,7.484-5.692
	c9.031-6.629,18.718-13.604,25.99-22.172c1.636-1.928-0.376-5.908-2.969-4.361c-10.01,5.974-19.119,13.655-28.53,20.534
	c-5.027,3.676-11.895,7.133-16.723,11.789c-6.978,0.05-13.956,0.085-20.934,0.139c-11.694,0.089-23.406,0.116-35.122,0.129
	c4.859-3.445,9.895-6.607,14.58-10.337c1.124-0.895,1.021-3.064-0.802-2.653c-8.19,1.847-15.52,7.456-21.857,12.998
	c-29.492,0.015-59.029-0.024-88.533,0.404c10.456-5.871,23.067-11.729,30.739-21.007c0.826-0.999,0.794-3.689-1.173-3.079
	c-11.977,3.709-22.406,13.626-32.175,21.056c-0.893,0.679-0.887,2.176-0.333,3.084c-15.577,0.244-31.144,0.624-46.687,1.235
	c0.022,0,0.012,0.011,0.033,0.01c-7.555,0.298-16.36,0.629-22.36,1.043v-1.368c0,0.176,0.938,0.107,1.591-0.373
	c9.917-7.289,20.549-14.124,28.658-23.494c0.872-1.007-0.21-2.408-1.417-1.871c-10.821,4.808-20.145,13.24-29.388,20.538
	c-0.008-4.277-0.036-8.553-0.044-12.83c12.888-9.244,26.627-16.954,39.872-25.631c2.1-1.376,0.791-6.037-1.906-5.009
	c-13.946,5.313-26.527,13.829-37.996,23.361c-0.014-6.504-0.027-13.006-0.041-19.509c14.96-10.113,30.198-19.777,45.587-29.225
	c13.771-8.455,28.992-15.657,41.674-25.682c1.656-1.309,0.484-4.402-1.702-3.623c-30.542,10.88-59.425,33.122-85.574,52.486
	c-0.009-4.311-0.019-8.621-0.028-12.932c9.968-4.786,21.979-10.021,28.972-18.44c0.829-0.997,0.791-3.69-1.173-3.079
	c-9.798,3.05-18.884,10.118-27.813,15.785c-0.03-13.536-0.059-27.071-0.088-40.607c11.791-7.333,23.883-14.015,34.729-22.747
	c0.737-0.593,0.297-2.061-0.745-1.647c-12.348,4.891-23.165,12.527-33.993,20.096c-0.01-4.693-0.021-9.386-0.031-14.08
	c-0.008-3.443-0.028-6.887-0.043-10.331c21.531-10.926,42.055-21.78,61.257-36.696c1.145-0.889,0.828-3.494-0.978-2.736
	c-21.68,9.096-40.964,21.354-60.3,34.459c-0.083-16.464-0.218-32.937-0.324-49.411c0.014-0.008,0.027-0.004,0.042-0.013
	c14.598-8.882,31.21-17.183,43.74-28.92C192.527,667.649,192.172,664.779,190.366,665.496z M150.124,531.524
	c2.991-0.175,5.871-0.338,8.621-0.428c-2.85,1.579-5.453,4.122-7.8,6.603C150.737,535.624,150.481,533.562,150.124,531.524z
	 M538.838,520.069c0.345-0.027,0.69-0.049,1.035-0.076c3.139-0.25,4.63-2.597,4.436-4.768c2.792-2.379,5.631-4.708,8.565-6.928
	c1.138,0.177,2.422,0.051,3.845-0.541c14.707-6.115,29.392-13.986,44.862-18.056c14.325-3.768,30.025-4.625,44.686-5.777
	c24.957-1.961,50.038-2.097,75.018-0.453c24.501,1.613,54.297,2.517,76.365,13.96c18.161,9.417,35.846,26.403,49.645,41.393
	c18.187,19.757,25.189,43.935,29.83,69.834c8.227,45.916,7.279,93.479-5.359,138.521c-11.605,41.362-33.406,80.931-64.449,110.877
	c-15.361,14.818-35.708,23.615-57.339,28.804c-40.993,0.27-81.987,0.516-122.981,0.737
	c-67.896-16.286-129.287-62.913-144.478-133.903c-9.89-46.221-13.376-94.263-0.464-140.098c0.609-0.669,1.236-1.322,1.796-2.031
	c0.661-0.836,0.704-2.691-0.297-3.103c0.127-0.41,0.23-0.823,0.36-1.232c8.774-27.687,22.954-52.704,41.6-73.616
	c0.644-0.443,1.316-0.853,1.942-1.317c0.553-0.41,0.859-1.111,0.895-1.771C531.719,526.913,535.204,523.415,538.838,520.069z
	 M533.329,511.273c0.347-0.069,0.692-0.208,1.024-0.445c4.869-3.483,9.462-7.481,13.888-11.719
	c-0.164,0.467-0.284,0.944-0.355,1.425c-4.718,3.356-9.203,6.997-13.576,10.766C533.983,511.289,533.656,511.283,533.329,511.273z
	 M876.919,539.595c-1.47,1.441-2.757,3.042-4.048,4.646c-1.625-2.469-3.309-4.893-5.104-7.235c3.785,0.063,7.57,0.096,11.356,0.154
	C878.329,538.029,877.596,538.932,876.919,539.595z M889.214,537.298c2.057,0.029,4.115,0.056,6.172,0.083
	c-0.519,0.321-0.99,0.62-1.337,0.883c-2.699,2.04-5.207,4.324-7.786,6.51c-2.844,2.41-6.008,4.652-8.749,7.248
	c-0.701-1.29-1.401-2.58-2.152-3.833C879.979,544.56,884.599,540.932,889.214,537.298z M1060.615,935.339
	c-1.373,0.233-2.902-0.084-4.291-0.005c-7.756,0.441-15.676-0.017-23.443-0.024c-79.842-0.082-159.684-0.146-239.526-0.252
	c-111.642-0.148-223.284-0.165-334.926-0.2c-84.306-0.026-168.613-0.071-252.919-0.12c-13.602-0.008-30.135,2.639-43.398-1.212
	c-14.386-4.176-14.5-18.686-13.981-31.873c60.915,3.014,122.466,0.532,183.444,0.236c61.027-0.296,122.055-0.658,183.082-0.99
	c31.483-0.171,62.966-0.362,94.449-0.545c5.58,1.694,11.23,3.177,16.958,4.382c44.376,9.334,93.688,6.964,137.813-5.271
	c36.312-0.212,72.625-0.429,108.937-0.624c69.117-0.369,138.244-1.154,207.362-0.991
	C1080.763,914.724,1079.174,932.193,1060.615,935.339z M1081.529,579.863c-0.067,0.036-0.122,0.032-0.19,0.076
	c-4.695,2.982-7.364,7.961-11.052,11.97c-4.049,4.403-7.971,8.916-11.768,13.537c-1.185,1.443,0.477,3.559,1.833,2
	c3.438-3.953,6.947-7.838,10.591-11.602c3.072-3.173,6.836-5.665,10.017-8.712c-0.343,4.616-0.637,9.232-0.869,13.847
	c-0.847-0.763-1.966-1.054-3.049-0.233c-10.817,8.204-19.501,19.255-28.471,29.346c-1.215,1.367,0.468,3.567,2.015,2.3
	c9.919-8.123,20.743-15.858,29.237-25.571c-0.27,6.523-0.463,13.052-0.567,19.6c-0.02,1.248-0.023,2.497-0.041,3.744
	c-8.845,7.127-15.673,15.951-23.859,23.91c-8.836,8.591-18.509,16.474-27.918,24.425c-1.407,1.188-0.35,3.854,1.416,2.574
	c18.138-13.141,35.438-27.836,50.293-44.67c-0.048,4.422-0.101,8.845-0.125,13.268c-0.296-0.464-0.758-0.787-1.41-0.775
	c-4.212,0.078-6.802,4.708-9.446,7.603c-3.552,3.891-6.992,7.87-10.485,11.813c-1.545,1.743,0.851,5.529,2.854,3.652
	c3.99-3.739,7.953-7.504,11.839-11.351c2.321-2.298,5.583-4.48,6.639-7.526c-0.031,7.118-0.043,14.235-0.036,21.353
	c-0.022-0.005-0.037-0.021-0.059-0.025c-4.007-0.847-6.467,4.297-8.74,6.999c-2.847,3.384-5.317,7-7.869,10.611
	c-1.015,1.435,0.278,4.646,2.115,2.975c3.544-3.224,7.022-6.436,10.269-9.961c1.406-1.526,3.126-2.928,4.294-4.524
	c0.011,6.038,0.022,12.077,0.039,18.115c-12.322,13.783-25.094,27.286-37.61,40.883c-1.391,1.512,0.195,4.341,1.922,2.651
	c12.868-12.589,24.461-25.827,35.698-39.642c0.007,2.504,0.015,5.009,0.021,7.513c0.019,8.271,0.029,16.543,0.046,24.815
	c-13.646,13.999-25.919,30.431-41.642,41.946c-1.247,0.914-0.272,2.761,1.135,1.879c16.124-10.105,28.634-23.814,40.517-38.359
	c0.016,8.235,0.03,16.469,0.045,24.703c-6.997,2.379-12.599,8.858-17.929,13.747c-6.439,5.906-12.44,12.269-18.741,18.323
	c-1.472,1.415-0.009,4.126,1.818,2.642c7.542-6.128,15.351-11.899,22.726-18.23c4.266-3.661,8.87-7.126,12.135-11.659
	c0.01,5.489,0.021,10.979,0.03,16.469c-0.165-0.268-0.434-0.458-0.807-0.4c-3.173,0.493-4.032,2.399-5.984,4.949
	c-2.302,3.009-4.741,5.914-7.318,8.692c-5.455,5.881-12.378,10.447-17.587,16.466c0.01,0.007,0.021,0.014,0.031,0.022
	c-1.283,1.45-0.166,4.769,1.829,3.881c7.445-3.316,13.62-9.857,19.042-15.82c3.789-4.168,9.92-9.856,10.797-15.805
	c0.052,30.3,0.109,60.6,0.167,90.899c0.003,1.32,0.038,2.7,0.092,4.12c-5.912,0.098-11.825,0.173-17.738,0.267
	c2.798-1.291,5.466-3.977,7.38-5.727c3.469-3.172,6.019-6.386,7.593-10.793c0.309-0.867-0.634-1.581-1.415-1.221
	c-4.173,1.922-7.319,5.408-10.695,8.46c-2.69,2.433-6.713,4.522-7.701,8.174c-0.107,0.394-0.056,0.828,0.132,1.177
	c-4.263,0.066-8.525,0.128-12.788,0.192c12.36-8.189,24.724-18.584,31.929-30.999c0.724-1.247-0.448-2.764-1.778-1.921
	c-7.428,4.708-13.542,11.276-20.384,16.763c-6.684,5.36-13.561,10.426-20.423,15.55c-0.299,0.223-0.505,0.496-0.684,0.778
	c-5.786,0.085-11.572,0.182-17.358,0.262c22.199-15.414,43.08-32.531,61.047-52.84c0.673-0.761-0.273-1.7-1.066-1.091
	c-23.095,17.74-45.333,36.54-68.61,54.056c-9.265,0.126-18.532,0.227-27.798,0.342c21.08-11.345,41.653-26.359,57.374-43.826
	c1.204-1.338-0.232-3.313-1.817-2.294c-21.927,14.092-43.063,30.526-63.954,46.223c-11.735,0.143-23.47,0.298-35.205,0.428
	c18.92-12.268,39.54-24.01,55.473-40.055c1.352-1.361,0.151-3.92-1.781-2.951c-21.26,10.661-39.552,27.883-57.943,42.659
	c-0.142,0.114-0.248,0.249-0.328,0.392c-17.576,0.191-35.152,0.364-52.729,0.527c12.164-5.596,24.213-12.401,34.443-19.878
	c1.001-0.731,0.622-2.478-0.778-2c-14.635,4.991-29.837,13.209-43.288,21.974c-7.727,0.07-15.454,0.127-23.18,0.192
	c9.495-4.595,18.781-9.711,27.988-14.667c14.621-7.871,29.946-15.36,42.38-26.496c1.126-1.008,0.832-3.432-1.071-2.774
	c-14.369,4.978-27.243,13.247-40.489,20.603c-14.01,7.78-28.601,14.959-42.239,23.444c-11.871,0.097-23.742,0.203-35.613,0.291
	c21.821-12.659,39.758-32.407,54.113-54.009c10.111-5.29,21.1-10.412,29.15-18.272c0.913-0.891,0.018-2.148-1.105-1.807
	c-8.335,2.536-16.258,8.03-23.795,13.466c3.224-5.188,6.26-10.443,9.087-15.712c11.746-7.462,25.536-15.483,34.212-26.25
	c0.673-0.835,0.006-2.479-1.187-2.039c-6.603,2.443-12.012,7.047-17.6,11.227c-3.715,2.78-7.368,5.6-10.985,8.467
	c0.865-1.739,1.723-3.478,2.546-5.207c1.955-4.113,3.763-8.281,5.506-12.474c2.532-2.045,4.775-4.549,7.003-6.849
	c3.109-3.209,7.272-6.375,8.284-10.864c0.25-1.108-0.772-1.991-1.796-1.804c-3.509,0.638-6.226,4.335-8.603,6.918
	c1.091-3.033,2.128-6.082,3.115-9.147c5.097-3.155,10.192-6.275,15.048-9.804c4.365-3.172,9.776-6.033,12.04-11.095
	c0.491-1.098-0.223-2.461-1.505-2.265c-4.817,0.734-8.489,4.405-12.229,7.34c-3.975,3.119-7.744,6.443-11.489,9.804
	c1.611-5.407,3.096-10.85,4.393-16.338c4.92-3.304,9.606-6.868,14.246-10.626c6.118-4.956,12.594-9.999,16.354-17.035
	c0.453-0.848,0.138-2.534-1.188-2.038c-6.975,2.609-12.507,8.266-18.148,12.977c-3.06,2.556-6.16,5.053-9.252,7.561
	c1.473-7.232,2.666-14.52,3.621-21.844c7.92-4.952,15.123-11.294,19.844-19.123c0.777-1.288-0.828-1.971-1.751-1.14
	c-5.924,5.328-11.485,10.647-17.519,15.488c0.723-6.282,1.256-12.588,1.611-18.908c5.935-4.625,11.287-10.13,16.766-15.226
	c6.363-5.918,14.846-11.804,18.314-19.947c0.511-1.199-0.599-3.53-2.162-2.914c-8.931,3.527-15.82,11.901-22.661,18.423
	c-3.213,3.063-6.608,6.083-9.835,9.25c0.171-6.922,0.133-13.849-0.119-20.773c0.243,0.081,0.517,0.101,0.826,0.024
	c7.285-1.824,11.447-10.631,15.426-16.556c5.089-7.579,9.178-15.586,13.042-23.84c0.998-2.133-2.079-5.166-3.55-2.718
	c-4.903,8.157-10.202,16.095-15.8,23.794c-3.23,4.442-8.261,8.681-10.182,13.862c-0.13-2.499-0.26-4.998-0.444-7.493
	c-0.146-1.972-0.325-3.969-0.493-5.958c0.404-0.124,0.806-0.331,1.192-0.678c10.45-9.41,18.805-21.908,26.852-33.361
	c1.436-2.044-0.808-5.614-2.866-3.313c-8.509,9.514-18.165,18.648-25.98,28.847c-0.231-2.241-0.466-4.479-0.736-6.727
	c2.818-3.179,5.284-6.307,7.823-9.745c0.911-1.235-0.386-2.589-1.638-1.675c-2.464,1.798-4.71,3.659-6.94,5.644
	c-0.205-1.501-0.413-2.998-0.639-4.498c5.135-6.842,10.588-13.435,16.226-19.876c7.012-8.012,15.323-14.95,21.941-23.27
	c0.878-1.104-0.148-2.381-1.387-1.646c-15.297,9.079-27.525,25.901-37.326,41.433c-0.636-3.917-1.352-7.816-2.159-11.695
	c4.106-2.498,7.872-6.031,9.715-10.403c0.719-1.704-1.344-5.002-3.169-3.128c-2.126,2.184-3.602,4.88-5.742,7.086
	c-0.598,0.617-1.19,1.247-1.782,1.874c-0.88-3.85-1.885-7.654-2.973-11.422c1.81-0.985,3.5-2.189,5.113-3.503
	c2.705-2.205,5.8-4.796,7.447-7.892c0.852-1.603-0.861-4.753-2.773-3.205c-2.273,1.84-4.032,4.501-5.966,6.704
	c-1.5,1.709-3.126,3.304-4.708,4.939c-0.831-2.712-1.731-5.389-2.686-8.039c2.504-1.219,4.828-2.636,7.029-4.432
	c0.73-0.596,1.046-1.659,0.877-2.571c-0.194-1.048-0.503-2.111-1.636-2.471c-1.051-0.334-2.717,0.548-3.559,1.096
	c-0.407,0.265-0.776,0.612-1.164,0.904c-1.106,0.83-2.248,1.628-3.379,2.44c-0.784-1.964-1.658-3.864-2.556-5.745
	c4.906-2.996,9.403-7.654,13.441-11.078c2.87-2.434,5.333-5.141,7.995-7.783c0.146-0.144,0.283-0.272,0.423-0.406
	c2.75,0.035,5.499,0.079,8.249,0.112c-1.425,1.408-2.808,2.858-4.15,4.379c-2.477,2.809-5.629,5.816-6.121,9.638
	c-0.141,1.096,0.866,2.12,1.962,1.784c3.472-1.064,6.093-5.539,8.645-8.035c2.713-2.653,5.552-5.207,8.458-7.647
	c0.378,0.004,0.755,0.011,1.133,0.016c-1.095,1.408-2.169,2.832-3.174,4.318c-2.233,3.302-5.019,6.268-6.653,9.929
	c-0.81,1.815,1.024,3.667,2.718,2.491c3.203-2.221,5.543-5.7,8.189-8.537c2.431-2.606,4.653-5.341,6.858-8.132
	c1.77,0.018,3.539,0.026,5.309,0.043c-2.526,3.274-4.788,6.766-7.208,10.112c-3.304,4.567-6.764,8.987-9.912,13.667
	c-0.813,1.209,0.855,2.05,1.751,1.141c4.027-4.088,7.69-8.478,11.6-12.674c3.676-3.945,7.591-7.763,10.687-12.191
	c2.965,0.026,5.93,0.048,8.896,0.072c-1.231,2.048-2.557,4.008-3.849,6.021c-2.489,3.879-4.761,7.789-6.484,12.063
	c-0.345,0.856,0.944,1.076,1.393,0.547c3.028-3.568,5.441-7.508,8.115-11.342c1.688-2.42,3.434-4.041,5.622-5.985
	c0.532-0.472,0.901-0.854,1.197-1.256c10.43,0.076,20.859,0.149,31.29,0.197c-1.862,2.25-3.416,4.854-4.9,7.127
	c-2.987,4.575-5.635,9.251-7.94,14.202c-0.585,1.255,0.97,2.284,1.832,1.13c3.02-4.044,6.086-8.103,9.384-11.926
	c2.86-3.315,7.067-6.453,8.916-10.508c3.293,0.013,6.585,0.024,9.878,0.035c-3.375,3.43-6.608,6.991-9.723,10.658
	c-3.616,4.258-11.519,11.248-10.966,17.304c0.104,1.139,1.066,2.421,2.242,2.633c0.289,0.052,0.579,0.104,0.868,0.156
	c1.099,0.198,1.973-0.694,2.31-1.633c0.032-0.09,0.064-0.18,0.097-0.27c0.157-0.438,0.169-1.019,0.07-1.588
	c1.4-2.48,5.304-6.005,6.632-7.639c2.591-3.186,5.295-6.278,8.101-9.277c2.913-3.114,7.862-6.239,9.409-10.313
	c3.889,0.01,7.778,0.034,11.667,0.04c-9.013,12.515-20.93,23.738-31.12,35.186c-1.086,1.22,0.517,2.554,1.639,1.414
	c10.302-10.475,20.236-22.336,31.483-31.967c0.3,0.229,0.689,0.351,1.073,0.307c0.359-0.041,0.719-0.082,1.078-0.124
	c0.901-0.104,1.673-0.451,2.057-1.342c0.67-1.557,0.849-2.263,0.772-3.463c3.445,0.005,6.891-0.003,10.336-0.001
	c-3.24,3.495-6.985,6.516-9.955,10.287c-3.01,3.822-5.666,8.011-8.219,12.146c-0.753,1.219,1.006,2.241,1.832,1.131
	c5.552-7.466,13.365-16.031,21.783-20.291c0.883-0.447,1.327-1.694,1.209-2.622c-0.027-0.217-0.055-0.434-0.083-0.652
	c6.826,0.002,13.652,0.004,20.479-0.003c-9.973,9.383-19.588,19.122-29.635,28.461c-9.064,8.426-19.237,16.043-25.165,27.125
	c-0.738,1.38,1.253,2.327,2.079,1.081c8.109-12.227,22.932-20.872,33.504-31.036c8.334-8.012,15.234-15.971,22.048-24.971h5.241
	c-2.117,3-3.69,5.589-5.427,8.232c-2.644,4.024-5.052,7.645-7.381,11.849c-0.497,0.898,0.771,1.459,1.417,0.829
	c3.258-3.176,6.073-6.2,9.046-9.692c1.415-1.663,3.139-3.283,4.709-4.98c-2.787,5.715-5.326,11.27-8.965,16.811
	c-3.067,4.671-6.684,8.991-9.391,13.883c-0.882,1.594,0.895,4.765,2.772,3.203c5.397-4.492,9.506-10.52,13.468-16.273
	c2.22-3.224,4.523-6.48,6.689-9.812C1083.561,561.976,1082.333,570.976,1081.529,579.863z M953.387,537.99c0.004,0,0.008,0,0.012,0
	c-0.002,0.005-0.003,0.009-0.005,0.013C953.392,537.999,953.389,537.994,953.387,537.99z M904.994,530.843
	c-0.127-0.178-0.271-0.333-0.445-0.408c-0.289-0.124-0.578-0.249-0.868-0.373c-0.545-0.234-1.241,0.086-1.615,0.48
	c-0.099,0.104-0.198,0.209-0.297,0.312c-12.959,0.044-25.917,0.105-38.876,0.141c-3.639-4.245-7.528-8.3-11.569-12.231
	c0.298-0.049,0.598-0.095,0.882-0.232c2.803-1.364,5.424-3.029,8.013-4.757c1.976-1.318,1.832-4.366,0.291-5.919
	c-1.721-1.734-4.629-1.812-6.515-0.32c-2.273,1.798-4.426,3.55-6.441,5.636c-0.413,0.427-0.622,0.882-0.742,1.339
	c-2.858-2.65-5.753-5.269-8.706-7.836c-0.01-0.009-0.02-0.017-0.03-0.026c0.64-0.487,1.263-1.004,1.861-1.566
	c3.534-3.324,7.005-6.481,11-9.177c3.395-2.29-0.049-8.083-3.437-5.988c-4.827,2.986-11.581,6.997-14.446,12.468
	c-1.136-0.945-2.27-1.876-3.402-2.785c0.93-1.139,1.809-2.307,2.67-3.318c2.537-2.981,5.129-5.904,7.828-8.739
	c2.914-3.062-2.268-7.548-5.316-4.818c-3.921,3.511-7.873,7.025-11.416,10.928c-0.21,0.232-0.405,0.454-0.606,0.679
	c-2.618-1.923-5.248-3.745-7.913-5.46c0.154-0.146,0.332-0.288,0.459-0.436c1.052-1.223,0.813-3.059-0.205-4.239
	c-1.22-1.414-3.001-1.588-4.506-0.609c-0.729,0.474-1.504,0.916-2.244,1.378c-0.639-0.361-1.276-0.729-1.921-1.079
	c0.054-0.082,0.114-0.181,0.165-0.255c1.797,0.061,3.625-0.823,4.136-2.667c0.543-1.963-0.974-4.58-3.097-4.866
	c-2.454-0.331-4.836-0.008-6.406,2.116c-0.636,0.861-0.879,1.756-0.862,2.629c-1.775-0.831-3.574-1.627-5.41-2.372
	c1.617-1.582,0.71-5.312-2.05-5.312c-2.164,0-2.879,1.906-2.504,3.579c-1.872-0.665-3.778-1.292-5.729-1.87
	c3.005-1.582,5.699-3.419,8.525-5.392c1.664-1.162,2.225-3.182,1.033-4.943c-1.005-1.486-3.714-2.653-5.369-1.429
	c-3.137,2.318-6.479,4.404-8.933,7.488c-0.643,0.808-0.768,1.882-0.535,2.853c-1.775-0.437-3.59-0.836-5.439-1.205
	c1.253-0.743,2.339-1.787,3.512-2.793c1.884-1.617,3.887-3.06,6.009-4.347c2.932-1.778,0.362-7.204-2.567-5.427
	c-2.309,1.401-4.539,2.936-6.618,4.663c-2.421,2.01-4.222,3.786-4.616,6.986c-0.005,0.042,0.015,0.085,0.014,0.128
	c-4.806-0.81-9.633-1.513-14.468-2.161c4.026-3.262,8.1-6.464,12.228-9.596c2.411-1.829-0.866-6.721-3.481-4.988
	c-5.01,3.32-9.906,6.788-14.732,10.37c-1.341,0.994-2.688,1.95-3.903,2.987c-4.069-0.454-8.145-0.85-12.226-1.199
	c0.432-0.463,0.866-0.918,1.306-1.353c3.506-3.464,7.22-6.692,11.089-9.742c2.612-2.06-0.779-6.798-3.581-4.668
	c-4.063,3.09-7.969,6.365-11.667,9.886c-1.825,1.738-3.579,3.41-5.045,5.263c-2.385-0.165-4.77-0.296-7.157-0.427
	c1.358-1.614,2.587-3.338,3.561-5.341c0.724-1.491-0.286-3.477-2.07-2.563c-3.661,1.875-6.403,4.616-9.516,7.244
	c-0.103,0.087-0.195,0.169-0.297,0.255c-3.312-0.129-6.625-0.244-9.938-0.312c1.46-1.378-0.024-5.01-1.994-3.593
	c-1.569,1.129-3.102,2.305-4.599,3.524c-4.031-0.036-8.059-0.03-12.084,0.018c0.357-0.438,0.713-0.86,1.069-1.245
	c3.658-3.955,7.516-7.698,11.592-11.22c2.014-1.74-0.036-5.929-2.453-4.066c-4.206,3.243-8.261,6.682-12.028,10.43
	c-1.925,1.915-4.208,3.916-5.853,6.223c-3.033,0.07-6.073,0.159-9.121,0.265c2.286-2.273,4.459-4.669,5.767-7.545
	c0.662-1.455-0.392-3.333-2.087-2.775c-4.767,1.567-8.457,5.952-11.901,9.433c-0.427,0.432-0.87,0.864-1.317,1.298
	c-6.043,0.307-12.09,0.718-18.125,1.261c0.224-0.228,0.449-0.458,0.673-0.682c3.605-3.619,7.208-7.24,10.823-10.849
	c2.171-2.167-1.139-6.224-3.595-3.924c-3.619,3.388-7.266,6.745-10.894,10.123c-2.146,1.998-4.127,3.955-5.751,6.218
	c-8.417,0.953-16.783,2.181-25.02,3.826c-0.087,0.018-0.171,0.044-0.258,0.062c6.72-5.657,13.063-11.742,19.198-18.027
	c1.579-1.618-0.615-5.443-2.588-3.675c-7.94,7.118-16.182,13.715-24.767,20.04c-3.192,2.352-6.823,4.542-10.287,6.918
	c3.552-4.271,6.987-8.647,10.279-13.187c1.523-2.101-0.936-5.601-2.995-3.292c-8.152,9.141-16.938,17.817-26.027,26.042
	c-4.059,2.294-8.055,4.708-12,7.195c5.838-5.964,11.432-12.193,17.015-18.044c1.558-1.633,0.048-5.118-2.116-3.349
	c-12.842,10.492-27.783,20.656-38.357,33.526c-1.536,1.869,0.098,4.701,2.162,5.208c-82.216-2.474-164.957,2.473-247.149,4.592
	c-41.283,1.064-82.566,2.135-123.849,3.214c-10.424,0.272-40.58,5.3-45.432-7.21c-2.874-7.411-0.668-19.81-0.458-27.591
	c0.33-12.203,0.917-24.504,2.373-36.635c0.255-2.125,0.085-6.217,0.948-8.72c0.438-0.261,1.17-0.654,2.119-0.834
	c13.319-2.532,27.1-2.663,40.613-2.928c18.716-0.368,37.443-0.327,56.171-0.084c0.452,0.143,0.924,0.176,1.406,0.022
	c29.233,0.396,58.47,1.28,87.675,1.926c26.048,0.577,52.098,1.135,78.152,1.368c23.253,0.208,47.931,1.97,71.016-1.261
	c46.278-6.475,62.309-59.453,89.194-90.517c6.034-6.972,13.493-15.854,22.649-18.687c10.291-3.184,23.649-2.013,34.349-2.526
	c25.258-1.212,50.545-1.786,75.828-2.106c3.224-0.041,6.448-0.035,9.672-0.068c1.64,1.17,3.625,1.579,5.656,0.23
	c0.125-0.083,0.182-0.185,0.292-0.272c55.969-0.484,111.95,0.137,167.911,1.039c59.074,0.953,118.154,2.446,177.237,2.631
	c9.618,0.03,21.782-2.132,31.152-0.133c17.482,3.728,14.688,19.855,15.486,32.709c0.704,11.336,1.33,22.676,1.878,34.02
	c2.199,45.497,3.037,91.042,2.751,136.589C1028.228,530.358,966.611,530.632,904.994,530.843z M806.669,483.609
	c0.711-1.026,1.12-1.202,1.196-0.449C807.507,483.433,807.102,483.562,806.669,483.609z M1099.021,471.689
	c-0.051-3.862-0.125-7.723-0.194-11.584c3.67-0.398,7.334-0.846,11.039-0.78c2.049,0.037,6.427-0.055,8.823,1.331
	C1113.043,465.978,1106.107,468.768,1099.021,471.689z M1137.626,465.951c-8.232,12.905-25.262,14.164-38.493,19.746
	c-0.011-1.415-0.021-2.83-0.034-4.245c10.686-4.043,21.647-8.608,29.061-17.593c0.99-1.199,1.681-2.658,1.07-4.24
	c-4.031-10.435-19.912-9.831-30.561-6.721c-0.072-3.503-0.141-7.005-0.229-10.508c0.271,0.097,0.516,0.228,0.819,0.277
	C1110.11,444.397,1148.885,448.302,1137.626,465.951z M991.624,484.053c-15.795,5.958-29.686,16.041-45.736,21.82
	c-2.381,0.858-1.071,5.633,1.465,4.927c15.847-4.409,34.778-10.626,45.65-23.608C993.9,486.122,993.572,483.319,991.624,484.053z
	 M1021.277,492.74c0.085-1.03-0.725-1.79-1.688-1.846c-2.387-0.14-4.503,1.273-6.552,2.313c-1.596,0.81-3.204,1.37-4.97,1.68
	c-4.159,0.729-2.268,6.971,1.536,6.439C1014.632,500.621,1020.799,498.55,1021.277,492.74z M932.908,414.527
	c6.745-4.701,13.736-9.174,20.075-14.419c0.514-0.426,0.044-1.208-0.563-0.863c-7.06,4.015-13.6,8.956-20.275,13.569
	C931.08,413.551,931.736,415.344,932.908,414.527z M949.473,477.353c-16.589,3.246-32.048,14.933-45.172,25.083
	c-2.398,1.855,0.842,6.68,3.481,4.988c13.961-8.948,30.479-15.92,42.863-26.991C951.815,479.387,951.255,477.004,949.473,477.353z
	 M944.461,424.592c6.49-4.095,13.017-8.123,19.398-12.388c4.732-3.163,9.546-5.636,12.118-10.871
	c0.53-1.079,0.014-3.128-1.532-2.882c-5.898,0.939-10.124,4.49-14.883,7.922c-6.055,4.366-11.983,8.902-17.894,13.461
	C939.24,421.706,941.637,426.374,944.461,424.592z M999.752,369.05c-0.707,0.582-1.413,1.166-2.115,1.754
	c-1.448,1.212,0.489,3.53,1.74,1.997c0.578-0.709,1.173-1.404,1.762-2.104C1001.989,369.684,1000.909,368.099,999.752,369.05z
	 M1036.868,463.223c7.908-20.24,9.819-45.693,11.407-67.203c1.067-14.452,3.367-34.287-12.136-42.032
	c-10.228-5.11-24.438-3.415-35.566-3.997c-14.164-0.741-28.32-1.246-42.496-1.661c-21.474-0.628-43.683-2.564-65.519-2.603
	c-2.723-0.101-5.52-0.076-8.322,0.112c-5.389,0.125-10.757,0.343-16.065,0.805c-2.9,0.252-5.118,2.956-5.669,5.649
	c-2.58,1.699-4.916,3.769-6.872,6.327c-3.849,5.033-6.1,11.602-7.4,18.805c-1.727,0.473-3.432,1.071-5.094,1.595
	c-3.805,1.2-7.603,2.424-11.394,3.667c-3.421,1.122-1.852,6.818,1.528,5.907c4.634-1.249,9.26-2.528,13.884-3.81
	c0.024-0.007,0.05-0.013,0.074-0.02c-0.539,5.565-0.666,11.307-0.626,16.893c-9.07,2.653-18.153,7.372-26.661,10.208
	c-2.608,0.869-1.287,5.363,1.475,4.634c7.541-1.989,17.159-3.862,25.314-7.33c0.092,3.569,0.202,7.003,0.263,10.17
	c-4.933,1.013-9.76,3.766-14.185,5.842c-6.663,3.125-12.997,6.865-19.204,10.805c-2.01,1.276-0.237,5.604,2.103,4.365
	c6.186-3.278,12.471-6.28,18.845-9.172c3.77-1.711,8.446-2.907,12.448-4.849c-0.114,5.169-0.418,11.046-0.168,16.852
	c-2.362,1.849-5.011,3.299-7.661,4.879c-4.159,2.478-8.332,4.933-12.494,7.405c-2.136,1.269-0.667,5.357,1.784,4.012
	c5.705-3.132,11.413-6.258,17.123-9.381c0.575-0.315,1.159-0.622,1.741-0.93c1.138,8.695,4.256,16.548,12.188,20.656
	c7.731,4.004,17.555,3.729,25.995,4.233c8.391,0.501,16.789,0.961,25.188,1.37c-12.952,4.183-24.447,11.918-35.612,19.649
	c-1.605,1.112-0.818,4.413,1.213,3.183c12.729-7.711,26.322-13.853,38.563-22.3c0.13-0.089,0.174-0.217,0.24-0.336
	c3.22,0.145,6.44,0.319,9.66,0.429c25.464,0.873,50.988,1.036,76.434-0.414C1014.108,474.898,1031.318,477.43,1036.868,463.223z
	 M935.463,360.642c3.472,0.158,6.942,0.363,10.414,0.536c-0.019,0.49,0.137,0.98,0.545,1.362c2.367,2.218,4.735,4.435,7.104,6.651
	c2.009,1.88,3.754,3.813,6.462,4.57c0.779,0.217,1.7-0.751,1.339-1.512c-1.383-2.915-3.771-4.833-6.11-6.962
	c-1.41-1.283-2.82-2.565-4.23-3.848c2.966,0.153,5.932,0.299,8.898,0.458c0.047,0.081,0.064,0.167,0.129,0.244
	c1.125,1.329,2.251,2.658,3.378,3.986c1.042,1.228,2.053,2.681,3.642,3.178c0.837,0.262,2.03-0.541,1.714-1.517
	c-0.691-2.127-2.297-3.94-3.935-5.638c1.882,0.103,3.764,0.188,5.646,0.293c-0.67,0.671-0.958,1.845-0.146,2.532
	c2.262,1.916,4.252,3.917,7.044,4.989c0.707,0.271,1.791-0.818,1.339-1.512c-1.586-2.434-3.73-4.068-5.942-5.88
	c2.856,0.16,5.712,0.321,8.569,0.482c-0.219,0.672-0.202,1.435,0.277,2.083c1.605,2.17,3.348,4.223,5.263,6.126
	c0.992,0.986,2.145,2.242,3.451,3.024c-2.512,0.158-4.985,0.43-7.227,0.519c-10.642,0.423-21.286,0.818-31.93,1.181
	c-1.668,0.057-3.345,0.095-5.02,0.137c-0.005-0.078,0.033-0.149,0.008-0.229c-1.148-3.663-4.297-6.522-6.73-9.375
	c-1.684-1.975-3.371-3.948-5.058-5.92C934.725,360.618,935.095,360.625,935.463,360.642z M904.766,384.36
	c16.515-0.773,33.172-0.274,49.653-0.323c6.499-0.019,12.999-0.03,19.499-0.044c8.456-0.018,11.361-0.24,18.788,5.239
	c9.057,6.682,7.269,10.465,6,20.569c-0.841,6.699-1.814,13.922-3.957,20.35c-1.961,5.881-3.171,9.435-8.817,11.845
	c-5.205,2.223-13.521,0.291-19.477,0.213c-11.949-0.156-24.005-0.586-35.892-1.849c-4.368-0.464-8.833-1.04-12.868-2.317
	c-0.502-0.506-1.178-0.8-2.035-0.726c-5.592-2.219-10.098-6.118-11.899-13.526c-2.557-10.517,0.911-26.478,1.277-37.288
	C905.064,385.691,904.945,384.997,904.766,384.36z M912.485,360.083c-0.057,0.487,0.047,0.988,0.393,1.403
	c2.154,2.583,4.4,5.079,6.757,7.479c2.181,2.221,4.807,5.503,8.051,5.91c0.918,0.115,1.819-1.196,1.42-2.016
	c-1.531-3.145-4.755-5.29-7.265-7.64c-1.74-1.629-3.386-3.351-5.027-5.077c4.347,0.064,8.68,0.161,12.998,0.3
	c0.029,0.345,0.118,0.686,0.358,0.98c2.317,2.848,4.645,5.688,6.959,8.538c1.565,1.926,3.189,4.596,5.266,6.258
	c-8.874,0.186-17.813,0.299-26.699,0.812c0.013-0.09,0.056-0.185,0.05-0.268c-0.312-4.265-3.561-7.958-6.093-11.227
	c-1.496-1.932-3.095-3.777-4.756-5.565C907.428,360.009,909.957,360.049,912.485,360.083z M898.767,359.857
	c2.697,3.101,5.271,6.278,7.691,9.619c1.747,2.413,3.349,5.774,5.746,7.786c-3.024,0.215-6.037,0.504-9.039,0.852
	c-2.178-4.198-5.736-7.763-8.882-11.188c-2.08-2.265-4.424-5.164-7.07-7.448C891.057,359.648,894.909,359.774,898.767,359.857z
	 M879.376,359.032c0.003,0.007,0.003,0.015,0.006,0.022c1.856,4.578,6.656,8.104,9.914,11.684c2.296,2.523,4.498,5.592,6.933,8.338
	c-0.764,0.123-1.528,0.244-2.29,0.38c-3.272-3.723-6.782-6.978-7.66-7.814c-5.671-5.407-11.847-10.138-18.821-13.697
	C871.408,358.416,875.385,358.759,879.376,359.032z M863.233,361.682c0.156,0.496,0.389,0.369,0.752,0.683
	c6.708,5.818,13.722,11.054,19.794,17.557c1.794,1.922,4.965,7.079,8.358,10.346c-0.082,1.669-0.185,4.444-0.3,6.118
	C884.371,386.083,868.359,379,856.99,379h-0.042C857.697,373,859.416,366.022,863.233,361.682z M856.547,381.19
	c6.672,2.347,13.208,5.306,19.211,9.058c5.28,3.301,9.875,8.311,15.657,10.705c-0.082,1.092-0.161,2.18-0.236,3.265
	c-3.844-1.045-7.789-1.867-11.506-3.137c-8.063-2.755-15.783-6.155-23.291-10.161C856.359,387.746,856.363,384.455,856.547,381.19z
	 M856.344,403.447c0.245-0.211,0.537-0.384,0.772-0.603c0.821-0.766,0.969-3.193-0.667-3.082c-0.027,0.002-0.055,0.009-0.082,0.011
	c0.008-0.396-0.002-0.792,0.008-1.189c0.011-0.503,0.014-1.025,0.019-1.543c10.01,6.199,22.451,13.096,34.351,15.104
	c-0.053,1.63-0.077,3.24-0.059,4.823c-2.478-3.891-9.332-3.291-13.359-3.256c-7.202,0.063-14.36,1.35-21.035-1.907
	C856.289,409.019,856.306,406.233,856.344,403.447z M856.288,417.934c5.628,2.718,11.754,3.157,18.055,3.238
	c4.818,0.062,12.038,2.419,16.251-0.178c0.097-0.059,0.151-0.165,0.229-0.244c0.097,1.6,0.252,3.165,0.474,4.691
	c-4.303,0.736-8.573,1.86-12.848,2.629c-7.238,1.301-14.515,2.205-21.831,2.865C856.473,426.603,856.34,422.269,856.288,417.934z
	 M858.254,448.954c-0.839-3.422-1.207-7.291-1.42-11.469c11.736-0.445,24.97-0.856,36.458-4.138
	c0.383,0.998,0.802,1.976,1.292,2.915c-3.504,1.38-6.961,2.94-10.465,4.216C875.594,443.585,866.956,446.388,858.254,448.954z
	 M860.344,454.581c7.678-1.627,15.295-3.517,22.792-5.853c4.186-1.304,9.011-2.504,13.577-4.159
	c-1.878,0.972-3.741,1.945-5.598,2.859c-8.502,4.183-16.91,8.506-25.245,13.012C863.424,458.923,861.631,456.951,860.344,454.581z
	 M896.83,464.733c-6.346-0.292-12.681-0.617-18.987-1.001c-0.889-0.054-1.704-0.155-2.519-0.256
	c6.614-2.765,13.201-5.585,19.738-8.538c4.459-2.014,9.548-3.827,14.206-6.166c1.927,0.757,4.023,1.426,6.35,1.974
	c1.582,0.373,3.198,0.667,4.811,0.966c-1.982,0.991-3.947,2.059-5.963,3.1c-5.434,2.804-10.915,5.511-16.434,8.142
	C897.254,463.326,896.901,463.988,896.83,464.733z M927.842,465.75c-6.241-0.116-12.475-0.282-18.7-0.504
	c7.714-3.131,15.762-6.634,21.604-12.058c5.042,0.516,10.152,0.789,15.269,0.914c-0.038,0.024-0.075,0.05-0.112,0.073
	c-5.467,3.441-11.052,6.673-16.858,9.512C928.183,464.109,927.858,464.895,927.842,465.75z M956.91,463.821
	c-0.662,0.504-0.871,1.261-0.818,2.047c-5.509,0.056-11.02,0.063-16.533,0.024c3.797-1.804,7.527-3.747,11.127-5.924
	c2.762-1.671,5.953-3.269,7.934-5.775c3.366-0.027,6.696-0.073,9.981-0.119c-0.333,0.305-0.662,0.605-0.983,0.885
	C964.127,458.008,960.597,461.009,956.91,463.821z M986.734,454.934c-1.814,2.629-3.611,5.27-5.417,7.905
	c-0.522,0.762-0.609,1.613-0.415,2.41c-5.364,0.208-10.736,0.367-16.116,0.474c2.567-1.742,5.101-3.53,7.556-5.429
	c2.235-1.728,4.98-3.658,6.471-6.163c2.99,0.03,5.97-0.03,8.797-0.409C987.307,454.12,987.014,454.528,986.734,454.934z
	 M1007.263,463.816c-6.515,0.478-13.062,0.841-19.62,1.152c1.23-1.794,2.459-3.588,3.688-5.382c1.608-2.347,3.011-4.602,2.67-7.543
	c0.066-0.029,0.135-0.053,0.201-0.083c4.679,3.928,9.354,7.855,14.024,11.784C1007.9,463.769,1007.601,463.792,1007.263,463.816z
	 M1016.721,462.906c-3.938-4.901-7.648-9.504-12.355-13.8c-1.101-1.004-2.191-2.099-3.315-3.139
	c0.349-0.569,0.687-1.158,0.989-1.807c0.336-0.723,0.612-1.5,0.923-2.246c0.165,0.387,0.364,0.764,0.647,1.12
	c0.516,0.649,1.113,1.224,1.706,1.801c1.475,1.438,3.036,2.713,4.713,3.907c3.645,2.596,7.475,4.835,11.425,6.932
	c3.952,2.099,7.611-3.707,3.777-6.269c-3.591-2.4-6.841-5.042-10.056-7.912c-2.987-2.667-5.766-5.519-9.803-6.253
	c0.634-2.067,1.207-4.171,1.703-6.321c3.599,1.993,7.484,3.58,11.63,3.699c3.082,0.087,2.78-4.701,0.26-5.444
	c-3.616-1.067-7.163-1.958-10.521-3.731c-0.088-0.046-0.156-0.036-0.241-0.072c0.359-2.013,0.672-4.033,0.938-6.06
	c4.068,1.325,9.397,2.384,11.616-0.708c0.736-1.026,0.518-2.619-0.623-3.246c-1.809-0.993-3.74-1.025-5.754-1.184
	c-1.587-0.125-3.086-0.395-4.581-0.742c0.223-2.401,0.41-4.785,0.536-7.121c3.58-0.092,7.864,0.041,10.593-2.12
	c0.744-0.589,1.232-2.178,0.099-2.695c-3.17-1.447-6.97-0.854-10.481-0.363c0.006-0.217,0.02-0.445,0.026-0.66
	c0.023-0.846,0.041-1.712,0.051-2.586c2.464-0.841,4.839-1.875,6.796-3.535c0.774-0.657,1.208-2.798-0.327-2.874
	c-2.249-0.111-4.455,0.338-6.624,1c-0.385-4.683-1.604-9.199-5.004-12.391c1.76-1.065,3.504-2.154,5.255-3.119
	c3.55-1.957,7-4.088,10.263-6.487c1.162-0.854,0.871-3.073-0.79-2.922c-7.029,0.639-15.135,4.154-20.744,9.298
	c-1.667-0.428-3.421-0.623-5.216-0.657c0.245-0.462,0.322-1.031,0.14-1.462c-1.016-2.397-3.397-3.813-5.237-5.547
	c-1.299-1.223-2.495-2.541-3.646-3.902c6.33,0.359,12.659,0.719,18.989,1.069c12.029,0.665,30.296-1.745,31.193,14.982
	c0.529,9.865-0.714,20.125-1.602,29.939c-1.147,12.667-2.89,25.285-5.261,37.782
	C1026.594,458.733,1024.381,461.673,1016.721,462.906z M283.94,467.518c-12.938,6.939-24.39,16.58-36.584,24.716
	c-1.928,1.286-0.344,5.601,1.964,4.35c13.078-7.088,26.499-14.937,36.511-26.104C287.119,469.043,285.909,466.462,283.94,467.518z
	 M501.972,749.5c4.031,21.478,10.885,40.672,24.752,57.796c27.828,34.362,66.859,60.728,110.204,70.284
	c42.017,9.263,88.384,6.185,129.516-6.163c40.684-12.214,68.636-50.242,86.434-87.087c19.665-40.708,27.204-86.148,24.876-131.127
	c-2.257-43.609-10.649-84.722-43.282-115.523c-17.588-16.6-35.564-32.017-59.578-37.673c-26.653-6.277-55.394-7.763-82.672-7.641
	c-44.043,0.196-82.862,3.063-120.055,27.683c-1.875,1.241-2.635,2.976-2.636,4.741c-45.519,32.811-72.794,88.748-75.126,145.694
	C493.321,696.98,497.096,723.517,501.972,749.5z M575.647,531.968c1.071,0.169,2.208,0.087,3.364-0.385
	c12.65-5.169,25.358-11.787,38.591-15.355c11.683-3.15,24.327-3.869,36.313-4.885c38.011-3.223,78.537-3.019,115.94,5.237
	c20.942,4.623,35.815,17.907,51.167,31.98c15.899,14.575,26.458,29.833,31.892,50.989c10.085,39.266,11.869,81.336,3.951,121.128
	c-7.123,35.797-22.315,70.355-45.555,98.653c-12.029,14.648-25.481,28.101-43.676,34.634c-19.13,6.868-40.565,10.167-60.76,11.842
	c-38.025,3.155-77.842-1.703-111.497-20.652c-30.342-17.084-62.334-44.654-74.597-77.892
	C490.612,685.489,507.614,584.531,575.647,531.968z M569.317,810.691c1.381,0.891,2.565-1.188,1.863-2.309
	c-7.334-11.715-16.822-21.799-23.807-33.865c-7.866-13.586-13.475-28.151-18.395-43.028c-0.628-1.9-3.248-0.642-2.992,1.065
	C530.09,759.896,545.166,795.111,569.317,810.691z M591.595,814.21c2.125,0.523,2.779-2.678,1.315-3.757
	c-21.666-15.986-34.414-41.88-45.057-65.963c-11.019-24.93-18.542-52.833-17.331-80.243c0.092-2.097-2.557-1.479-2.794,0.243
	c-4.621,33.573,2.735,64.717,17.626,94.931C555.206,779.411,567.869,808.373,591.595,814.21z M545.211,586.631
	c6.99-10.539,15.853-19.472,22.974-29.86c0.513-0.748-0.517-1.325-1.13-0.893c-10.483,7.399-17.19,18.756-23.758,29.635
	C542.539,586.769,544.421,587.822,545.211,586.631z M952.785,627.344c-0.671,1.01,0.575,1.998,1.435,1.149
	c11.519-11.382,22.901-22.948,34.352-34.402c0.675-0.675-0.168-1.531-0.929-1.049C974.097,601.627,961.641,614.013,952.785,627.344z
	 M1068.135,637.32c1.361-3.388,3.367-6.518,5.96-9.098c1.426-1.418,6.484-4.303,4.04-6.728c-0.457-0.453-1.193-0.602-1.779-0.315
	c-5.464,2.683-9.283,9.647-11.256,15.139C1064.295,638.558,1067.263,639.488,1068.135,637.32z M658.698,702.166
	c3.966-0.965,7.665-2.61,10.958-5.037c2.913-2.147,6.525-5.114,7.187-8.852c0.113-0.641-0.719-0.683-1.084-0.407
	c-2.156,1.624-3.417,4.108-5.314,6.02c-3.305,3.329-7.445,5.722-11.918,7.111C657.749,701.243,657.805,702.383,658.698,702.166z
	 M654.672,716.979c18.636,2.111,33.621-1.97,45.973-16.971c9.76-11.852,12.934-32.999,5.959-46.777
	c-1.259-2.487-5.582-2.356-6.099,0.59c-2.597,14.799,3.52,29.058-7.517,42.042c-10.378,12.21-23.041,15.584-38.262,15.553
	C651.708,711.41,651.898,716.665,654.672,716.979z M966.857,680.258c-1.155,1.268,0.171,3.333,1.559,1.977
	c8.551-8.348,17.966-17.16,23.482-27.9c0.581-1.132-0.782-2.241-1.742-1.36C981.427,660.984,974.843,671.492,966.857,680.258z
	 M648.855,761.555c0.19,0.223,0.409,0.41,0.656,0.542c35.432,18.914,84.374,7.018,106.643-26.379
	c20.476-30.709,29.204-88.551,3.125-118.788c-26.385-30.592-82.937-34.751-117.907-17.798
	c-33.648,16.312-48.737,63.797-47.099,98.533C595.839,730.832,612.113,765.51,648.855,761.555z M612.811,671.511
	c3.974-20.014,14.998-46.029,33.388-56.781c15.575-9.106,38.836-9.889,56.374-8.459c23.768,1.938,48.574,13.817,56.218,38.004
	c5.671,17.945,3.213,39.661-1.042,57.588c-4.708,19.838-13.349,37.011-31.148,48.262c-24.583,15.539-49.611,11.885-76.294,6.901
	c-0.101-0.019-0.17,0.011-0.264,0.004c-3.536-3.304-6.557-7.194-10.533-10.006c-9.141-6.466-16.028-7.753-21.32-18.736
	C609.849,710.977,609.125,690.071,612.811,671.511z M572.185,625.492c-13.51,28.599-14.481,63.781-11.028,94.723
	c1.067,9.558,2.692,19.103,5.212,28.298c-4.862-11.406-10.168-22.493-12.697-35.003c-3.624-17.925-3.945-36.376-3.954-54.597
	c-0.001-2.257-2.81-1.357-2.967,0.477c-3.002,34.845-4.622,77.41,21.974,104.465c1.057,1.076,2.201,0.392,2.654-0.675
	c5.126,12.261,12.466,23.438,23.148,32.512c23.042,19.573,53.54,26.4,83.192,24.45c28.646-1.883,61.649-9.406,86.069-25.113
	c44.965-28.922,55.69-100.579,45.892-148.916c-5.645-27.852-18.693-60.043-43.626-76.052c-8.1-5.201-17.717-8.409-27.386-8.41
	c-6.596-0.001-14.436,2.917-21.191,2.305c-0.264-0.372-0.609-0.686-1.11-0.824C661.334,547.97,597.021,572.92,572.185,625.492z
	 M630.252,580.634c27.126-13.785,55.652-14.373,85.321-12.435c0.539,0.035,0.969-0.15,1.335-0.419
	c7.726,2.07,14.503,8.724,22.476,10.656c23.446,5.681,35.906,20.874,45.334,42.784c19.081,44.337,15.374,102.36-11.938,142.748
	c-14.311,21.163-39.925,29.214-63.562,35.258c-27.577,7.051-57.311,9.231-84.135-1.881c-27.816-11.522-42.901-34.794-48.806-63.839
	c-5.911-29.069-6.957-61.838,1.221-90.701C585.255,615.424,605.118,593.406,630.252,580.634z M552.755,598.212
	c5.607-11.88,11.804-23.872,20.84-33.553c3.739-4.006,7.985-7.604,12.587-10.578c4.814-3.112,10.318-4.561,14.89-7.982
	c0.869-0.65,1.098-2.901-0.407-2.929c-11.043-0.209-21.663,8.64-28.976,16.248c-10.152,10.558-16.826,23.444-21.952,37.02
	C548.904,598.643,551.611,600.636,552.755,598.212z M560.555,606.485c-0.398,1.804,2.114,2.552,2.74,0.801
	c4.603-12.876,11.507-24.281,21.715-33.442c9.226-8.28,19.334-11.808,30.414-16.72c2.322-1.03,1.248-5.23-1.325-4.892
	C587.789,555.692,565.986,581.838,560.555,606.485z M969.798,768.131c1.029-1.153-0.009-3.189-1.564-2.525
	c-19.416,8.282-36.614,23.416-55.059,33.738c-1.865,1.044-0.739,4.272,1.425,3.246C933.408,793.668,955.701,783.92,969.798,768.131z
	 M214.927,471.592c0.612-1.214-0.365-2.616-1.706-2.124c-5.469,2.006-9.746,6.576-14.224,10.178
	c-5.359,4.311-10.803,8.445-16.543,12.242c-2.048,1.354-0.682,5.385,1.784,4.012C194.765,490.038,209.291,482.772,214.927,471.592z
	 M997.796,817.377c-23.292,11.82-44.712,26.688-66.095,41.615c-2.414,1.685-0.281,6.53,2.337,4.756
	c21.536-14.591,43.729-28.192,64.646-43.675C999.804,819.244,999.494,816.516,997.796,817.377z M963.728,799.653
	c1.033-1.277,0.358-3.776-1.594-3.188c-7.313,2.205-13.735,7.112-20.314,10.92c-8.317,4.814-16.778,9.399-25.244,13.945
	c-1.568,0.843-0.991,4.148,1.023,3.435c8.854-3.137,17.388-6.777,25.697-11.178C950.384,809.833,958.616,805.97,963.728,799.653z
	 M1005.015,687.004c-27.333,21.041-51.053,47.44-74.709,72.42c-1.557,1.645,0.082,5.225,2.116,3.349
	c25.559-23.562,52.238-47.025,74.145-74.101C1007.487,687.536,1006.228,686.07,1005.015,687.004z M1028.69,601.973
	c-12.546,12.11-24.826,24.273-38.531,35.112c-1.133,0.896,0.203,2.244,1.317,1.383c13.811-10.667,27.19-22.207,38.237-35.777
	C1030.25,602.032,1029.217,601.465,1028.69,601.973z M214.85,449.639c0.787-0.828,0.042-2.329-1.075-1.567
	c-20.282,13.821-38.833,29.945-58.65,44.422c-1.336,0.976-0.638,3.526,1.048,2.457C177.204,481.61,197.635,467.758,214.85,449.639z
	 M896.429,831.632c-15.45,6.288-29.676,15.978-44.29,23.994c-14.476,7.941-29.354,15.186-43.491,23.726
	c-1.064,0.642-0.625,2.361,0.707,1.958c29.807-9.037,65.38-25.383,88.559-46.513C899.08,833.735,898.231,830.899,896.429,831.632z
	 M925.821,689.285c11.735-10.023,23.793-19.562,33.859-31.314c0.63-0.736-0.199-1.624-0.997-1.071
	c-12.667,8.789-23.207,20.045-34.249,30.739C923.455,688.587,924.716,690.228,925.821,689.285z M941.297,588.447
	c6.062-3.454,9.973-10.403,14.225-15.787c5.335-6.756,11.501-13.109,16.19-20.317c1.676-2.576-2.113-6.186-4.486-3.975
	c-5.405,5.037-9.859,11.188-14.394,16.996c-5.071,6.496-11.572,13.314-13.64,21.422C938.885,587.99,940.215,589.063,941.297,588.447
	z M924.804,708.241c2.77-0.265,4.734-4.091,6.499-6.031c2.474-2.717,5.06-5.325,7.729-7.85c1.155-1.093,0.046-3.104-1.299-1.927
	c-2.721,2.379-5.365,4.84-7.908,7.409c-2.055,2.076-5.335,4.458-5.845,7.443C923.897,707.769,924.28,708.292,924.804,708.241z
	 M943.298,569.787c2.961-3.375,5.411-7.158,7.956-10.854c2.325-3.378,5.433-6.908,6.325-10.945c0.171-0.774-0.735-1.157-1.329-0.823
	c-3.2,1.801-4.985,6.069-6.893,9.095c-2.635,4.179-5.379,8.337-7.517,12.793C941.356,570.063,942.671,570.501,943.298,569.787z
	 M914.759,741.606c4.644-1.06,8.405-5.111,11.951-8.159c4.984-4.284,9.84-8.667,14.48-13.319c1.517-1.52,0.37-4.884-1.878-3.329
	c-5.405,3.736-10.499,7.767-15.449,12.093c-3.605,3.15-7.959,6.741-9.971,11.154C913.607,740.673,913.786,741.828,914.759,741.606z
	 M900.954,816.95c-12.639,3.374-23.952,11.012-35.267,17.401c-9.771,5.517-20.185,10.644-28.96,17.675
	c-1.713,1.373-0.689,5.335,1.828,4.332c12.01-4.792,23.21-12.043,34.485-18.359c9.854-5.518,20.408-10.35,28.704-18.127
	C902.588,819.082,902.776,816.464,900.954,816.95z"/>
</svg>
